<?xml version="1.0" encoding="UTF-8" standalone="no"?>
<svg
   width="726"
   zoomAndPan="magnify"
   viewBox="0 0 544.5 213"
   height="284"
   preserveAspectRatio="xMidYMid meet"
   version="1.0"
   id="svg82"
   sodipodi:docname="FTMSD basic logo.svg"
   inkscape:version="1.4.3 (0d15f75, 2025-12-25)"
   xmlns:inkscape="http://www.inkscape.org/namespaces/inkscape"
   xmlns:sodipodi="http://sodipodi.sourceforge.net/DTD/sodipodi-0.dtd"
   xmlns="http://www.w3.org/2000/svg"
   xmlns:svg="http://www.w3.org/2000/svg">
  <sodipodi:namedview
     id="namedview82"
     pagecolor="#ffffff"
     bordercolor="#666666"
     borderopacity="1.0"
     inkscape:showpageshadow="2"
     inkscape:pageopacity="0.0"
     inkscape:pagecheckerboard="0"
     inkscape:deskcolor="#d1d1d1"
     inkscape:zoom="0.8663519"
     inkscape:cx="410.91847"
     inkscape:cy="352.62807"
     inkscape:window-width="1920"
     inkscape:window-height="1001"
     inkscape:window-x="1271"
     inkscape:window-y="-9"
     inkscape:window-maximized="1"
     inkscape:current-layer="svg82" />
  <defs
     id="defs2">
    <g
       id="g1" />
    <clipPath
       id="400fe380d9">
      <path
         d="M 507 14 L 541.902344 14 L 541.902344 53 L 507 53 Z M 507 14 "
         clip-rule="nonzero"
         id="path2" />
    </clipPath>
  </defs>
  <g
     id="g109">
    <path
       d="m 8.776368,63.36988 v 11.234375 h 14.21875 V 80.24488 H 8.776368 v 15.453125 h -7.09375 v -37.9375 h 23.9375 v 5.609375 z m 0,0"
       id="path5"
       style="fill:#ffffff;fill-opacity:1" />
    <path
       d="m 67.22687,76.729255 c 0,2.78125 -0.464844,5.359375 -1.390625,7.734375 -0.917969,2.367187 -2.214844,4.414063 -3.890625,6.140625 -1.679688,1.730469 -3.699219,3.085938 -6.0625,4.0625 -2.355469,0.96875 -4.976562,1.453125 -7.859375,1.453125 -2.875,0 -5.496094,-0.484375 -7.859375,-1.453125 -2.355469,-0.976562 -4.375,-2.332031 -6.0625,-4.0625 -1.6875,-1.726562 -2.996094,-3.773438 -3.921875,-6.140625 -0.929687,-2.375 -1.390625,-4.953125 -1.390625,-7.734375 0,-2.78125 0.460938,-5.351562 1.390625,-7.71875 0.925781,-2.375 2.234375,-4.425781 3.921875,-6.15625 1.6875,-1.726562 3.707031,-3.078125 6.0625,-4.046875 2.363281,-0.976563 4.984375,-1.46875 7.859375,-1.46875 1.914063,0 3.722656,0.226563 5.421875,0.671875 1.695312,0.449219 3.253906,1.078125 4.671875,1.890625 1.414063,0.8125 2.6875,1.804687 3.8125,2.96875 1.132813,1.15625 2.09375,2.453125 2.875,3.890625 0.789063,1.4375 1.390625,2.996094 1.796875,4.671875 0.414062,1.679687 0.625,3.445313 0.625,5.296875 z m -7.21875,0 c 0,-2.082031 -0.28125,-3.945312 -0.84375,-5.59375 -0.5625,-1.65625 -1.359375,-3.0625 -2.390625,-4.21875 -1.03125,-1.15625 -2.289063,-2.035156 -3.765625,-2.640625 -1.46875,-0.613281 -3.132812,-0.921875 -4.984375,-0.921875 -1.855469,0 -3.523437,0.308594 -5,0.921875 -1.480469,0.605469 -2.742187,1.484375 -3.78125,2.640625 -1.042969,1.15625 -1.84375,2.5625 -2.40625,4.21875 -0.554687,1.648438 -0.828125,3.511719 -0.828125,5.59375 0,2.085938 0.273438,3.953125 0.828125,5.609375 0.5625,1.648437 1.363281,3.042969 2.40625,4.1875 1.039063,1.148437 2.300781,2.027344 3.78125,2.640625 1.476563,0.617188 3.144531,0.921875 5,0.921875 1.851563,0 3.515625,-0.304687 4.984375,-0.921875 1.476562,-0.613281 2.734375,-1.492188 3.765625,-2.640625 1.03125,-1.144531 1.828125,-2.539063 2.390625,-4.1875 0.5625,-1.65625 0.84375,-3.523437 0.84375,-5.609375 z m 0,0"
       id="path7"
       style="fill:#ffffff;fill-opacity:1" />
    <path
       d="m 95.65361,89.86988 v 5.828125 H 73.43486 v -37.9375 h 7.0625 V 89.86988 Z m 0,0"
       id="path10"
       style="fill:#ffffff;fill-opacity:1" />
    <path
       d="m 122.9116,89.86988 v 5.828125 h -22.21875 v -37.9375 h 7.0625 V 89.86988 Z m 0,0"
       id="path13"
       style="fill:#ffffff;fill-opacity:1" />
    <path
       d="m 162.80026,76.729255 c 0,2.78125 -0.46484,5.359375 -1.39063,7.734375 -0.91796,2.367187 -2.21484,4.414063 -3.89062,6.140625 -1.67969,1.730469 -3.69922,3.085938 -6.0625,4.0625 -2.35547,0.96875 -4.97656,1.453125 -7.85938,1.453125 -2.875,0 -5.49609,-0.484375 -7.85937,-1.453125 -2.35547,-0.976562 -4.375,-2.332031 -6.0625,-4.0625 -1.6875,-1.726562 -2.99609,-3.773438 -3.92188,-6.140625 -0.92968,-2.375 -1.39062,-4.953125 -1.39062,-7.734375 0,-2.78125 0.46094,-5.351562 1.39062,-7.71875 0.92579,-2.375 2.23438,-4.425781 3.92188,-6.15625 1.6875,-1.726562 3.70703,-3.078125 6.0625,-4.046875 2.36328,-0.976563 4.98437,-1.46875 7.85937,-1.46875 1.91407,0 3.72266,0.226563 5.42188,0.671875 1.69531,0.449219 3.25391,1.078125 4.67187,1.890625 1.41407,0.8125 2.6875,1.804687 3.8125,2.96875 1.13282,1.15625 2.09375,2.453125 2.875,3.890625 0.78907,1.4375 1.39063,2.996094 1.79688,4.671875 0.41406,1.679687 0.625,3.445313 0.625,5.296875 z m -7.21875,0 c 0,-2.082031 -0.28125,-3.945312 -0.84375,-5.59375 -0.5625,-1.65625 -1.35938,-3.0625 -2.39063,-4.21875 -1.03125,-1.15625 -2.28906,-2.035156 -3.76562,-2.640625 -1.46875,-0.613281 -3.13281,-0.921875 -4.98438,-0.921875 -1.85546,0 -3.52343,0.308594 -5,0.921875 -1.48046,0.605469 -2.74218,1.484375 -3.78125,2.640625 -1.04296,1.15625 -1.84375,2.5625 -2.40625,4.21875 -0.55468,1.648438 -0.82812,3.511719 -0.82812,5.59375 0,2.085938 0.27344,3.953125 0.82812,5.609375 0.5625,1.648437 1.36329,3.042969 2.40625,4.1875 1.03907,1.148437 2.30079,2.027344 3.78125,2.640625 1.47657,0.617188 3.14454,0.921875 5,0.921875 1.85157,0 3.51563,-0.304687 4.98438,-0.921875 1.47656,-0.613281 2.73437,-1.492188 3.76562,-2.640625 1.03125,-1.144531 1.82813,-2.539063 2.39063,-4.1875 0.5625,-1.65625 0.84375,-3.523437 0.84375,-5.609375 z m 0,0"
       id="path16"
       style="fill:#ffffff;fill-opacity:1" />
    <path
       d="m 218.70552,57.760505 -11.78125,37.9375 h -6.375 L 192.2524,69.77613 c -0.23047,-0.625 -0.4375,-1.394531 -0.625,-2.3125 -0.10547,0.4375 -0.21094,0.851563 -0.3125,1.234375 -0.10547,0.386719 -0.21875,0.746094 -0.34375,1.078125 l -8.375,25.921875 h -6.39063 l -11.75,-37.9375 h 5.89063 c 0.61328,0 1.125,0.148438 1.53125,0.4375 0.41406,0.292969 0.69141,0.683594 0.82812,1.171875 l 6.45313,22.6875 c 0.14453,0.5625 0.28125,1.171875 0.40625,1.828125 0.13281,0.65625 0.27344,1.339844 0.42187,2.046875 0.13282,-0.726563 0.28516,-1.414063 0.45313,-2.0625 0.16406,-0.644531 0.34375,-1.25 0.53125,-1.8125 l 7.45312,-22.6875 c 0.14454,-0.40625 0.42188,-0.773437 0.82813,-1.109375 0.40625,-0.332031 0.91016,-0.5 1.51562,-0.5 h 2.0625 c 0.61329,0 1.11329,0.152344 1.5,0.453125 0.38282,0.292969 0.67188,0.679687 0.85938,1.15625 l 7.42187,22.6875 c 0.375,1.085937 0.70704,2.335937 1,3.75 0.22657,-1.382813 0.48438,-2.632813 0.76563,-3.75 l 6.45312,-22.6875 c 0.10157,-0.4375 0.36719,-0.8125 0.79688,-1.125 0.42578,-0.320313 0.9375,-0.484375 1.53125,-0.484375 z m 0,0"
       id="path19"
       style="fill:#ffffff;fill-opacity:1" />
    <path
       d="m 260.67537,63.55738 h -11.4375 v 32.140625 h -7.0625 V 63.55738 h -11.4375 v -5.796875 h 29.9375 z m 0,0"
       id="path25"
       style="fill:#ffffff;fill-opacity:1" />
    <path
       d="m 297.64154,57.760505 v 37.9375 h -7.07812 V 79.11988 h -17.8125 v 16.578125 h -7.09375 v -37.9375 h 7.09375 V 74.08863 h 17.8125 V 57.760505 Z m 0,0"
       id="path28"
       style="fill:#ffffff;fill-opacity:1" />
    <path
       d="m 313.17881,63.36988 v 10.53125 h 13.26562 v 5.421875 H 313.17881 V 90.05738 h 16.84375 v 5.640625 h -23.9375 v -37.9375 h 23.9375 v 5.609375 z m 0,0"
       id="path31"
       style="fill:#ffffff;fill-opacity:1" />
    <path
       d="m 390.14587,57.760505 v 37.9375 h -6.21875 v -24.5 c 0,-0.976562 0.0508,-2.035156 0.15625,-3.171875 l -11.46875,21.53125 c -0.54297,1.03125 -1.3711,1.546875 -2.48438,1.546875 h -1 c -1.11719,0 -1.94531,-0.515625 -2.48437,-1.546875 L 355.03649,67.948005 c 0.0625,0.574219 0.10938,1.140625 0.14063,1.703125 0.0312,0.554687 0.0469,1.070313 0.0469,1.546875 v 24.5 h -6.21875 v -37.9375 h 5.32813 c 0.3125,0 0.58203,0.01172 0.8125,0.03125 0.22656,0.02344 0.42968,0.07031 0.60937,0.140625 0.1875,0.0625 0.35156,0.171875 0.5,0.328125 0.15625,0.15625 0.30078,0.367188 0.4375,0.625 l 11.35938,21.078125 c 0.30078,0.554687 0.57812,1.125 0.82812,1.71875 0.25781,0.59375 0.50781,1.210937 0.75,1.84375 0.25,-0.644531 0.50391,-1.269531 0.76563,-1.875 0.25781,-0.601563 0.53515,-1.1875 0.82812,-1.75 l 11.20313,-21.015625 c 0.14453,-0.257812 0.29687,-0.46875 0.45312,-0.625 0.15625,-0.15625 0.32031,-0.265625 0.5,-0.328125 0.1875,-0.07031 0.39453,-0.117187 0.625,-0.140625 0.22656,-0.01953 0.5,-0.03125 0.8125,-0.03125 z m 0,0"
       id="path37"
       style="fill:#ffffff;fill-opacity:1" />
    <path
       d="m 434.77656,76.729255 c 0,2.78125 -0.46484,5.359375 -1.39062,7.734375 -0.91797,2.367187 -2.21485,4.414063 -3.89063,6.140625 -1.67969,1.730469 -3.69922,3.085938 -6.0625,4.0625 -2.35547,0.96875 -4.97656,1.453125 -7.85937,1.453125 -2.875,0 -5.4961,-0.484375 -7.85938,-1.453125 -2.35547,-0.976562 -4.375,-2.332031 -6.0625,-4.0625 -1.6875,-1.726562 -2.99609,-3.773438 -3.92187,-6.140625 -0.92969,-2.375 -1.39063,-4.953125 -1.39063,-7.734375 0,-2.78125 0.46094,-5.351562 1.39063,-7.71875 0.92578,-2.375 2.23437,-4.425781 3.92187,-6.15625 1.6875,-1.726562 3.70703,-3.078125 6.0625,-4.046875 2.36328,-0.976563 4.98438,-1.46875 7.85938,-1.46875 1.91406,0 3.72265,0.226563 5.42187,0.671875 1.69531,0.449219 3.25391,1.078125 4.67188,1.890625 1.41406,0.8125 2.6875,1.804687 3.8125,2.96875 1.13281,1.15625 2.09375,2.453125 2.875,3.890625 0.78906,1.4375 1.39062,2.996094 1.79687,4.671875 0.41406,1.679687 0.625,3.445313 0.625,5.296875 z m -7.21875,0 c 0,-2.082031 -0.28125,-3.945312 -0.84375,-5.59375 -0.5625,-1.65625 -1.35937,-3.0625 -2.39062,-4.21875 -1.03125,-1.15625 -2.28907,-2.035156 -3.76563,-2.640625 -1.46875,-0.613281 -3.13281,-0.921875 -4.98437,-0.921875 -1.85547,0 -3.52344,0.308594 -5,0.921875 -1.48047,0.605469 -2.74219,1.484375 -3.78125,2.640625 -1.04297,1.15625 -1.84375,2.5625 -2.40625,4.21875 -0.55469,1.648438 -0.82813,3.511719 -0.82813,5.59375 0,2.085938 0.27344,3.953125 0.82813,5.609375 0.5625,1.648437 1.36328,3.042969 2.40625,4.1875 1.03906,1.148437 2.30078,2.027344 3.78125,2.640625 1.47656,0.617188 3.14453,0.921875 5,0.921875 1.85156,0 3.51562,-0.304687 4.98437,-0.921875 1.47656,-0.613281 2.73438,-1.492188 3.76563,-2.640625 1.03125,-1.144531 1.82812,-2.539063 2.39062,-4.1875 0.5625,-1.65625 0.84375,-3.523437 0.84375,-5.609375 z m 0,0"
       id="path40"
       style="fill:#ffffff;fill-opacity:1" />
    <path
       d="m 472.96889,57.760505 v 37.9375 h -3.625 c -0.55468,0 -1.02343,-0.08594 -1.40625,-0.265625 -0.375,-0.1875 -0.73437,-0.5 -1.07812,-0.9375 l -19.8125,-25.296875 c 0.10156,1.15625 0.15625,2.226562 0.15625,3.203125 v 23.296875 h -6.21875 v -37.9375 h 3.70312 c 0.30079,0 0.5625,0.01563 0.78125,0.04687 0.21875,0.02344 0.40625,0.07422 0.5625,0.15625 0.16407,0.07422 0.32813,0.1875 0.48438,0.34375 0.16406,0.148437 0.34375,0.339844 0.53125,0.578125 l 19.89062,25.40625 c -0.0547,-0.613276 -0.10156,-1.218745 -0.14062,-1.812495 -0.0312,-0.59375 -0.0469,-1.144531 -0.0469,-1.65625 v -23.0625 z m 0,0"
       id="path43"
       style="fill:#ffffff;fill-opacity:1" />
    <path
       d="m 488.50616,63.36988 v 10.53125 h 13.26563 v 5.421875 H 488.50616 V 90.05738 h 16.84375 v 5.640625 h -23.9375 v -37.9375 h 23.9375 v 5.609375 z m 0,0"
       id="path46"
       style="fill:#ffffff;fill-opacity:1" />
    <path
       d="m 527.87932,81.010505 v 14.6875 h -7.03125 v -14.6875 l -13.82812,-23.25 h 6.21875 c 0.61328,0 1.09766,0.152344 1.45312,0.453125 0.36329,0.292969 0.66407,0.667969 0.90625,1.125 l 6.92188,12.671875 c 0.40625,0.75 0.75781,1.460938 1.0625,2.125 0.3125,0.667969 0.58594,1.328125 0.82812,1.984375 0.22657,-0.65625 0.48829,-1.316406 0.78125,-1.984375 0.30079,-0.664062 0.64454,-1.375 1.03125,-2.125 l 6.90625,-12.671875 c 0.1875,-0.382813 0.47266,-0.742187 0.85938,-1.078125 0.38281,-0.332031 0.875,-0.5 1.46875,-0.5 h 6.25 z m 0,0"
       id="path49"
       style="fill:#ffffff;fill-opacity:1" />
  </g>
  <g
     id="g110">
    <path
       d="m 20.375,131.64695 c -0.167969,0.19922 -0.324219,0.35547 -0.46875,0.46875 -0.148438,0.11719 -0.320312,0.17188 -0.515625,0.17188 -0.25,0 -0.515625,-0.12891 -0.796875,-0.39063 -0.28125,-0.25781 -0.640625,-0.53515 -1.078125,-0.82812 -0.429687,-0.30078 -0.949219,-0.58203 -1.5625,-0.84375 -0.617187,-0.25781 -1.386719,-0.39063 -2.3125,-0.39063 -0.9375,0 -1.773437,0.15235 -2.5,0.45313 -0.730469,0.29297 -1.351563,0.69531 -1.859375,1.20312 -0.5,0.5 -0.886719,1.08985 -1.15625,1.76563 -0.261719,0.66797 -0.390625,1.39062 -0.390625,2.17187 0,0.76172 0.175781,1.40235 0.53125,1.92188 0.351563,0.52344 0.8125,0.96875 1.375,1.34375 0.570313,0.36719 1.226563,0.69531 1.96875,0.98437 0.738281,0.28125 1.488281,0.57422 2.25,0.875 0.769531,0.30469 1.523437,0.63672 2.265625,1 0.738281,0.36719 1.390625,0.82032 1.953125,1.35938 0.570313,0.54297 1.035156,1.19922 1.390625,1.96875 0.351562,0.76172 0.53125,1.68359 0.53125,2.76562 0,1.49219 -0.261719,2.90235 -0.78125,4.23438 -0.511719,1.32422 -1.246094,2.48437 -2.203125,3.48437 -0.960937,0.99219 -2.121094,1.78125 -3.484375,2.375 -1.355469,0.58204 -2.886719,0.875 -4.59375,0.875 -1.875,0 -3.546875,-0.36718 -5.015625,-1.10937 -1.46875,-0.75 -2.683594,-1.75391 -3.640625,-3.01563 l 1.453125,-1.95312 c 0.113281,-0.15625 0.257813,-0.28516 0.4375,-0.39063 0.175781,-0.10156 0.367187,-0.15625 0.578125,-0.15625 0.28125,0 0.578125,0.16797 0.890625,0.5 0.320313,0.32422 0.734375,0.6875 1.234375,1.09375 0.5,0.40625 1.113281,0.77735 1.84375,1.10938 0.738281,0.32422 1.65625,0.48437 2.75,0.48437 1.007812,0 1.921875,-0.16015 2.734375,-0.48437 0.8125,-0.32031 1.5,-0.76953 2.0625,-1.34375 0.570313,-0.57031 1.007813,-1.25391 1.3125,-2.04688 0.3125,-0.80078 0.46875,-1.6875 0.46875,-2.65625 0,-0.80078 -0.179687,-1.46875 -0.53125,-2 -0.355469,-0.53906 -0.820313,-0.99218 -1.390625,-1.35937 -0.5625,-0.36328 -1.214844,-0.67969 -1.953125,-0.95313 -0.730469,-0.26953 -1.476563,-0.53906 -2.234375,-0.8125 -0.761719,-0.28125 -1.511719,-0.59765 -2.25,-0.95312 -0.730469,-0.35156 -1.382812,-0.80078 -1.953125,-1.34375 -0.574219,-0.53906 -1.039063,-1.20703 -1.390625,-2 C 4,138.43602 3.828125,137.45945 3.828125,136.3032 c 0,-1.28906 0.234375,-2.53125 0.703125,-3.71875 0.46875,-1.1875 1.140625,-2.23437 2.015625,-3.14062 0.882813,-0.90625 1.957031,-1.62891 3.21875,-2.17188 1.269531,-0.53906 2.695313,-0.8125 4.28125,-0.8125 1.601563,0 3.050781,0.3086 4.34375,0.92188 1.289063,0.61719 2.351563,1.46094 3.1875,2.53125 z m 0,0"
       id="path55"
       style="fill:#ffffff;fill-opacity:1" />
    <path
       d="m 40.30309,138.72508 c -0.324219,-0.0703 -0.640625,-0.11719 -0.953125,-0.14063 -0.3125,-0.0312 -0.625,-0.0469 -0.9375,-0.0469 -0.875,0 -1.726562,0.14844 -2.546875,0.4375 -0.824219,0.28125 -1.59375,0.6836 -2.3125,1.20313 -0.71875,0.51172 -1.371094,1.12109 -1.953125,1.82812 -0.585938,0.71094 -1.085938,1.49219 -1.5,2.34375 -0.417969,0.84375 -0.746094,1.75 -0.984375,2.71875 -0.230469,0.96094 -0.34375,1.94532 -0.34375,2.95313 0,3.53125 1.125,5.29687 3.375,5.29687 0.71875,0 1.421875,-0.22265 2.109375,-0.67187 0.6875,-0.44531 1.34375,-1.07031 1.96875,-1.875 0.625,-0.80078 1.195312,-1.74219 1.71875,-2.82813 0.53125,-1.09375 1.003906,-2.28906 1.421875,-3.59375 z m -1.5,13.65625 c -0.523437,0.9375 -1.089844,1.79297 -1.703125,2.5625 -0.605469,0.76172 -1.25,1.40625 -1.9375,1.9375 -0.679688,0.53125 -1.398438,0.94922 -2.15625,1.25 -0.75,0.28906 -1.527344,0.4375 -2.328125,0.4375 -0.875,0 -1.671875,-0.17188 -2.390625,-0.51563 -0.71875,-0.34375 -1.335938,-0.84765 -1.84375,-1.51562 -0.5,-0.66406 -0.890625,-1.48438 -1.171875,-2.45313 -0.28125,-0.97656 -0.421875,-2.09765 -0.421875,-3.35937 0,-1.32031 0.164062,-2.60938 0.5,-3.85938 0.332031,-1.25781 0.800781,-2.4414 1.40625,-3.54687 0.601562,-1.11328 1.332031,-2.13281 2.1875,-3.0625 0.851562,-0.9375 1.800781,-1.74219 2.84375,-2.42188 1.050781,-0.6875 2.175781,-1.21093 3.375,-1.57812 1.195312,-0.375 2.457031,-0.5625 3.78125,-0.5625 0.945312,0 1.867188,0.0781 2.765625,0.23437 0.90625,0.14844 1.800781,0.41407 2.6875,0.79688 l -2.65625,21.53125 h -2.03125 c -0.511719,0 -0.859375,-0.12891 -1.046875,-0.39063 -0.179688,-0.26953 -0.265625,-0.59375 -0.265625,-0.96875 z m 0,0"
       id="path58"
       style="fill:#ffffff;fill-opacity:1" />
    <path
       d="m 54.66042,141.6157 c 1.1875,-1.95703 2.523438,-3.4375 4.015625,-4.4375 1.488281,-1.00781 3.023437,-1.51562 4.609375,-1.51562 0.9375,0 1.757812,0.1875 2.46875,0.5625 0.71875,0.375 1.300781,0.92187 1.75,1.64062 0.445312,0.71875 0.75,1.60547 0.90625,2.65625 0.164062,1.04297 0.164062,2.23047 0,3.5625 l -1.671875,14.17188 H 62.84792 l 1.671875,-14.17188 c 0.207031,-1.75781 0.09766,-3.0625 -0.328125,-3.90625 -0.429688,-0.84375 -1.210938,-1.26562 -2.34375,-1.26562 -0.710938,0 -1.429688,0.19531 -2.15625,0.57812 -0.71875,0.375 -1.417969,0.91797 -2.09375,1.625 -0.679688,0.69922 -1.308594,1.54297 -1.890625,2.53125 -0.574219,0.99219 -1.0625,2.09375 -1.46875,3.3125 l -1.28125,11.29688 h -3.90625 l 2.6875,-22.28125 h 1.921875 c 0.882812,0 1.328125,0.4375 1.328125,1.3125 z m 0,0"
       id="path61"
       style="fill:#ffffff;fill-opacity:1" />
    <path
       d="m 113.91052,140.3032 c 0,2.67969 -0.41797,5.1211 -1.25,7.32813 -0.82422,2.21094 -1.96875,4.10156 -3.4375,5.67187 -1.46875,1.57422 -3.21485,2.79297 -5.23438,3.65625 -2.01172,0.86719 -4.199216,1.29688 -6.562497,1.29688 H 86.566768 l 3.859375,-31.5 h 10.890627 c 1.92578,0 3.66406,0.33594 5.21875,1 1.55078,0.65625 2.875,1.58594 3.96875,2.78125 1.09375,1.1875 1.92969,2.61719 2.51562,4.28125 0.59375,1.66797 0.89063,3.49609 0.89063,5.48437 z m -4.25,0.0937 c 0,-1.58203 -0.19922,-3.00781 -0.59375,-4.28125 -0.39844,-1.28125 -0.97656,-2.36328 -1.73438,-3.25 -0.75,-0.88281 -1.66797,-1.5664 -2.75,-2.04687 -1.08593,-0.47656 -2.30859,-0.71875 -3.67187,-0.71875 h -6.750002 l -3.0625,24.84375 h 6.734375 c 1.75,0 3.347657,-0.33203 4.796877,-1 1.44531,-0.66406 2.6914,-1.625 3.73437,-2.875 1.03907,-1.25781 1.84766,-2.78516 2.42188,-4.57813 0.58203,-1.78906 0.875,-3.82031 0.875,-6.09375 z m 0,0"
       id="path67"
       style="fill:#ffffff;fill-opacity:1" />
    <path
       d="m 124.69629,135.9907 -2.6875,22.26563 h -3.84375 l 2.6875,-22.26563 z m 1.48437,-6.98437 c 0,0.38672 -0.0781,0.74609 -0.23437,1.07812 -0.14844,0.32422 -0.35157,0.61719 -0.60938,0.875 -0.25,0.25 -0.54297,0.44922 -0.875,0.59375 -0.33594,0.14844 -0.67187,0.21875 -1.01562,0.21875 -0.34375,0 -0.67969,-0.0703 -1,-0.21875 -0.32422,-0.14453 -0.60547,-0.34375 -0.84375,-0.59375 -0.24219,-0.25781 -0.4336,-0.55078 -0.57813,-0.875 -0.14844,-0.33203 -0.21875,-0.6914 -0.21875,-1.07812 0,-0.38281 0.0703,-0.74219 0.21875,-1.07813 0.14453,-0.33203 0.34375,-0.6289 0.59375,-0.89062 0.25,-0.25781 0.53516,-0.46094 0.85938,-0.60938 0.32031,-0.15625 0.64843,-0.23437 0.98437,-0.23437 0.35156,0 0.69141,0.0742 1.01563,0.21875 0.33203,0.14844 0.625,0.35156 0.875,0.60937 0.25,0.25 0.44531,0.54688 0.59375,0.89063 0.15625,0.34375 0.23437,0.71094 0.23437,1.09375 z m 0,0"
       id="path70"
       style="fill:#ffffff;fill-opacity:1" />
    <path
       d="m 140.90628,138.50633 c -0.91796,0 -1.76562,0.19531 -2.54687,0.57812 -0.77344,0.375 -1.46094,0.89844 -2.0625,1.5625 -0.60547,0.66797 -1.12109,1.45313 -1.54688,2.35938 -0.41796,0.89844 -0.74609,1.86719 -0.98437,2.90625 2.25781,-0.28125 4.06641,-0.59766 5.42187,-0.95313 1.36329,-0.36328 2.41016,-0.7539 3.14063,-1.17187 0.73828,-0.41406 1.22266,-0.86328 1.45312,-1.34375 0.23829,-0.48828 0.35938,-1 0.35938,-1.53125 0,-0.25781 -0.0586,-0.53125 -0.17188,-0.8125 -0.11718,-0.28906 -0.30468,-0.55078 -0.5625,-0.78125 -0.26171,-0.23828 -0.59375,-0.42969 -1,-0.57813 -0.40625,-0.15625 -0.90625,-0.23437 -1.5,-0.23437 z m 6.20313,15.64062 c -0.75,0.78125 -1.48438,1.44922 -2.20313,2 -0.71875,0.54297 -1.44921,0.9961 -2.1875,1.35938 -0.74218,0.36719 -1.51562,0.63281 -2.32812,0.79687 -0.8125,0.17579 -1.6875,0.26563 -2.625,0.26563 -1.27344,0 -2.41406,-0.21484 -3.42188,-0.64063 -1.01171,-0.42578 -1.87109,-1.03125 -2.57812,-1.8125 -0.69922,-0.78125 -1.24219,-1.72656 -1.625,-2.84375 -0.375,-1.11328 -0.5625,-2.35937 -0.5625,-3.73437 0,-1.14453 0.11719,-2.28516 0.35937,-3.42188 0.23829,-1.13281 0.58594,-2.21093 1.04688,-3.23437 0.46875,-1.03125 1.03516,-1.98438 1.70312,-2.85938 0.66407,-0.88281 1.42579,-1.64453 2.28125,-2.28125 0.85157,-0.63281 1.79688,-1.13281 2.82813,-1.5 1.03125,-0.36328 2.14062,-0.54687 3.32812,-0.54687 1.13282,0 2.10938,0.16406 2.92188,0.48437 0.82031,0.3125 1.49219,0.71875 2.01562,1.21875 0.53125,0.5 0.92579,1.05469 1.1875,1.65625 0.25782,0.59375 0.39063,1.16407 0.39063,1.70313 0,0.96875 -0.19922,1.85937 -0.59375,2.67187 -0.39844,0.8125 -1.125,1.54688 -2.1875,2.20313 -1.05469,0.65625 -2.5,1.22656 -4.34375,1.70312 -1.84375,0.48047 -4.21875,0.8711 -7.125,1.17188 0,0.15625 -0.008,0.3125 -0.0156,0.46875 0,0.15625 0,0.3125 0,0.46875 0,1.96094 0.42579,3.46094 1.28125,4.5 0.85157,1.03125 2.14454,1.54687 3.875,1.54687 0.70704,0 1.33204,-0.0703 1.875,-0.21875 0.55079,-0.14453 1.03907,-0.32031 1.46875,-0.53125 0.4375,-0.21875 0.82032,-0.45312 1.15625,-0.70312 0.33204,-0.25781 0.63282,-0.49219 0.90625,-0.70313 0.26954,-0.21875 0.51954,-0.39843 0.75,-0.54687 0.23829,-0.14453 0.47266,-0.21875 0.70313,-0.21875 0.28125,0 0.53125,0.125 0.75,0.375 z m 0,0"
       id="path73"
       style="fill:#ffffff;fill-opacity:1" />
    <path
       d="m 160.50705,148.20945 c 0.78907,0 1.48829,-0.17187 2.09375,-0.51562 0.61329,-0.34375 1.12891,-0.79688 1.54688,-1.35938 0.41406,-0.5625 0.73437,-1.1914 0.95312,-1.89062 0.22657,-0.70703 0.34375,-1.42188 0.34375,-2.14063 0,-1.28906 -0.32812,-2.26562 -0.98437,-2.92187 -0.65625,-0.65625 -1.55469,-0.98438 -2.6875,-0.98438 -0.79297,0 -1.49219,0.16407 -2.09375,0.48438 -0.60547,0.3125 -1.11719,0.74219 -1.53125,1.28125 -0.41797,0.54297 -0.73438,1.16406 -0.95313,1.85937 -0.21093,0.6875 -0.3125,1.40235 -0.3125,2.14063 0,1.32422 0.31641,2.32812 0.95313,3.01562 0.64453,0.6875 1.53516,1.03125 2.67187,1.03125 z m 4.42188,10.59375 c 0,-0.39843 -0.0391,-0.7539 -0.10938,-1.07812 -0.0742,-0.33203 -0.16796,-0.64453 -0.28125,-0.9375 -1.9375,-0.3125 -3.60937,-0.42578 -5.01562,-0.34375 -1.40625,0.0859 -2.57031,0.30469 -3.48438,0.65625 -0.91796,0.34375 -1.59375,0.79297 -2.03125,1.34375 -0.4375,0.5625 -0.65625,1.16406 -0.65625,1.8125 0,1.05078 0.44141,1.85156 1.32813,2.40625 0.88281,0.5625 2.14062,0.84375 3.76562,0.84375 0.96875,0 1.84766,-0.13281 2.64063,-0.39063 0.80078,-0.25 1.48437,-0.58984 2.04687,-1.01562 0.57032,-0.42969 1.01563,-0.92969 1.32813,-1.5 0.3125,-0.5625 0.46875,-1.16406 0.46875,-1.79688 z m 7.46875,-22 -0.14063,1.29688 c -0.0859,0.53125 -0.38281,0.88672 -0.89062,1.0625 l -2.78125,0.48437 c 0.26953,0.76172 0.40625,1.60157 0.40625,2.51563 0,0.74219 -0.0859,1.40234 -0.25,1.98437 -0.16797,0.58594 -0.375,1.125 -0.625,1.625 -0.25,0.5 -0.52344,0.96875 -0.8125,1.40625 -0.29297,0.4375 -0.5625,0.875 -0.8125,1.3125 -0.25,0.42969 -0.46094,0.875 -0.625,1.34375 -0.16797,0.46094 -0.25,0.96094 -0.25,1.5 0,0.39844 0.0664,0.77735 0.20312,1.14063 0.13282,0.35547 0.30469,0.70312 0.51563,1.04687 0.21875,0.34375 0.45312,0.69532 0.70312,1.04688 0.25782,0.34375 0.49219,0.71484 0.70313,1.10937 0.21875,0.39844 0.39453,0.82813 0.53125,1.29688 0.14453,0.46094 0.21875,0.96484 0.21875,1.51562 -0.0117,1.03907 -0.26172,2.02344 -0.75,2.95313 -0.48047,0.9375 -1.16797,1.76562 -2.0625,2.48437 -0.89844,0.71875 -1.98438,1.28516 -3.26563,1.70313 -1.27343,0.41406 -2.70312,0.625 -4.29687,0.625 -1.27344,0 -2.43359,-0.13672 -3.48438,-0.40625 -1.04296,-0.26172 -1.93359,-0.63281 -2.67187,-1.10938 -0.74219,-0.48046 -1.3125,-1.0625 -1.71875,-1.75 -0.40625,-0.67968 -0.60938,-1.42968 -0.60938,-2.25 0,-0.9375 0.19922,-1.76562 0.59375,-2.48437 0.39844,-0.71875 0.92969,-1.33594 1.60938,-1.85938 0.67578,-0.51953 1.45703,-0.94531 2.34375,-1.28125 0.89453,-0.33203 1.84375,-0.57812 2.84375,-0.73437 1.00781,-0.16406 2.03906,-0.24219 3.09375,-0.23438 1.05078,0 2.08203,0.0742 3.09375,0.21875 -0.125,-0.28125 -0.23047,-0.5664 -0.3125,-0.85937 -0.0859,-0.30078 -0.125,-0.62891 -0.125,-0.98438 0,-0.45703 0.0664,-0.92578 0.20312,-1.40625 0.14454,-0.48828 0.37891,-1.03906 0.70313,-1.65625 -0.55469,0.38672 -1.17969,0.6875 -1.875,0.90625 -0.6875,0.21094 -1.46875,0.3125 -2.34375,0.3125 -0.85547,0 -1.65234,-0.14062 -2.39063,-0.42187 -0.74218,-0.28125 -1.39062,-0.69141 -1.95312,-1.23438 -0.55469,-0.53906 -0.99219,-1.21875 -1.3125,-2.03125 -0.3125,-0.8125 -0.46875,-1.75781 -0.46875,-2.84375 0,-1.05078 0.19141,-2.08593 0.57812,-3.10937 0.38282,-1.01953 0.95313,-1.92578 1.70313,-2.71875 0.75,-0.80078 1.67187,-1.44141 2.76562,-1.92188 1.10157,-0.48828 2.36719,-0.73437 3.79688,-0.73437 0.78906,0 1.54687,0.10156 2.26562,0.29687 0.71875,0.1875 1.36329,0.46875 1.9375,0.84375 z m 0,0"
       id="path76"
       style="fill:#ffffff;fill-opacity:1" />
    <path
       d="m 183.10335,155.50633 c 1.07032,0 2.03907,-0.28906 2.90625,-0.875 0.875,-0.58203 1.625,-1.35938 2.25,-2.32813 0.625,-0.97656 1.10157,-2.10156 1.4375,-3.375 0.33204,-1.28125 0.5,-2.61718 0.5,-4.01562 0,-2.05078 -0.40625,-3.59375 -1.21875,-4.625 -0.8125,-1.03125 -1.98046,-1.54688 -3.5,-1.54688 -1.08593,0 -2.0625,0.29297 -2.9375,0.875 -0.86718,0.57422 -1.60937,1.34375 -2.23437,2.3125 -0.61719,0.96875 -1.08984,2.09375 -1.42188,3.375 -0.33593,1.27344 -0.5,2.60157 -0.5,3.98438 0,2.05469 0.39844,3.60547 1.20313,4.65625 0.80078,1.04297 1.97266,1.5625 3.51562,1.5625 z m -0.375,3.0625 c -1.21875,0 -2.33593,-0.21094 -3.34375,-0.625 -1.01171,-0.41406 -1.88281,-1.01953 -2.60937,-1.8125 -0.73047,-0.78906 -1.30469,-1.75781 -1.71875,-2.90625 -0.40625,-1.14453 -0.60938,-2.44531 -0.60938,-3.90625 0,-1.875 0.28907,-3.64063 0.875,-5.29688 0.59375,-1.65625 1.39844,-3.10156 2.42188,-4.34375 1.01953,-1.23828 2.22266,-2.21875 3.60937,-2.9375 1.38282,-0.71875 2.87891,-1.07812 4.48438,-1.07812 1.20703,0 2.31641,0.21094 3.32812,0.625 1.00782,0.41797 1.87891,1.02344 2.60938,1.8125 0.73828,0.79297 1.3125,1.76172 1.71875,2.90625 0.41406,1.14844 0.625,2.44531 0.625,3.89062 0,1.85547 -0.29688,3.60938 -0.89063,5.26563 -0.58593,1.65625 -1.38671,3.10937 -2.40625,4.35937 -1.01171,1.24219 -2.21484,2.22657 -3.60937,2.95313 -1.38672,0.73047 -2.88281,1.09375 -4.48438,1.09375 z m 0,0"
       id="path79"
       style="fill:#ffffff;fill-opacity:1" />
  </g>
</svg>
