<?xml version="1.0" encoding="utf-8"?>
<!-- Generator: Adobe Illustrator 24.2.0, SVG Export Plug-In . SVG Version: 6.00 Build 0)  -->
<svg version="1.1" id="Layer_1" xmlns="http://www.w3.org/2000/svg" xmlns:xlink="http://www.w3.org/1999/xlink" x="0px" y="0px"
	 viewBox="0 0 193.1 39.4" style="enable-background:new 0 0 193.1 39.4;" xml:space="preserve">
<style type="text/css">
	.st0{fill:#4598CC;}
	.st1{fill:#ED2736;}
</style>
<g>
	<path class="st0" d="M39,31.2c-1.2,0.8-2.6,1.1-4.3,1.1c-1.5,0-2.9-0.3-4-0.9s-2-1.5-2.6-2.6c-0.6-1.2-0.9-2.5-0.9-4.1
		s0.3-3,0.9-4.1c0.6-1.2,1.5-2,2.6-2.6s2.4-0.9,4-0.9c1.7,0,3.1,0.4,4.3,1.1s1.9,1.8,2.3,3.2l-4,1.6c-0.2-0.9-0.4-1.5-0.8-1.9
		c-0.4-0.3-0.9-0.5-1.6-0.5c-0.9,0-1.6,0.3-2.1,1s-0.7,1.7-0.7,3.1c0,2.8,0.9,4.1,2.8,4.1c0.8,0,1.3-0.2,1.7-0.5
		c0.4-0.4,0.7-0.9,0.8-1.7l4.1,1.1C40.9,29.2,40.1,30.4,39,31.2z"/>
	<path class="st0" d="M73.3,21.6c0.7,0.7,1,1.6,1,2.9v7.6h-4.6v-6.5c0-0.6-0.1-1-0.3-1.2c-0.2-0.2-0.5-0.4-0.8-0.4
		c-0.5,0-0.9,0.2-1.1,0.5c-0.3,0.4-0.4,0.9-0.4,1.6v6h-4.6v-6.5c0-0.6-0.1-1-0.3-1.2S61.7,24,61.4,24c-0.5,0-0.8,0.2-1.1,0.5
		C60,24.8,60,25.4,60,26.1V32h-4.6V20.8h4.1l0.1,2.3c0.3-0.8,0.8-1.5,1.5-1.9s1.4-0.7,2.4-0.7c0.9,0,1.6,0.2,2.2,0.6s1,1,1.3,1.7
		c0.3-0.7,0.8-1.3,1.5-1.7c0.6-0.4,1.4-0.6,2.3-0.6C71.8,20.6,72.7,20.9,73.3,21.6z"/>
	<path class="st0" d="M94.5,21.6c0.7,0.7,1,1.6,1,2.9v7.6h-4.6v-6.5c0-0.6-0.1-1-0.3-1.2c-0.2-0.2-0.5-0.4-0.8-0.4
		c-0.5,0-0.9,0.2-1.1,0.5c-0.3,0.4-0.4,0.9-0.4,1.6v6h-4.6v-6.5c0-0.6-0.1-1-0.3-1.2c-0.2-0.2-0.5-0.4-0.8-0.4
		c-0.5,0-0.8,0.2-1.1,0.5c-0.3,0.4-0.4,0.9-0.4,1.6V32h-4.6V20.8h4.1l0.1,2.3c0.3-0.8,0.8-1.5,1.5-1.9s1.4-0.7,2.4-0.7
		c0.9,0,1.6,0.2,2.2,0.6s1,1,1.3,1.7c0.3-0.7,0.8-1.3,1.5-1.7c0.6-0.4,1.4-0.6,2.3-0.6C92.9,20.6,93.8,20.9,94.5,21.6z"/>
	<path class="st0" d="M120.2,21.6c0.7,0.7,1,1.6,1,2.9v7.6h-4.6v-6.4c0-0.6-0.1-1.1-0.3-1.3c-0.2-0.3-0.5-0.4-0.9-0.4
		c-0.5,0-0.9,0.2-1.1,0.5c-0.3,0.4-0.4,0.9-0.4,1.6V32h-4.6V20.8h4.1l0.1,2.3c0.3-0.8,0.8-1.5,1.5-1.9s1.5-0.7,2.4-0.7
		C118.7,20.6,119.6,20.9,120.2,21.6z"/>
	<path class="st0" d="M138.7,31.2c-1.2,0.8-2.6,1.1-4.3,1.1c-1.5,0-2.9-0.3-4-0.9s-2-1.5-2.6-2.6c-0.6-1.2-0.9-2.5-0.9-4.1
		s0.3-3,0.9-4.1c0.6-1.2,1.5-2,2.6-2.6s2.4-0.9,4-0.9c1.7,0,3.1,0.4,4.3,1.1s1.9,1.8,2.3,3.2l-4,1.6c-0.2-0.9-0.4-1.5-0.8-1.9
		c-0.4-0.3-0.9-0.5-1.6-0.5c-0.9,0-1.6,0.3-2.1,1s-0.7,1.7-0.7,3.1c0,2.8,0.9,4.1,2.8,4.1c0.8,0,1.3-0.2,1.7-0.5s0.7-0.9,0.8-1.7
		l4.1,1.1C140.7,29.2,139.9,30.4,138.7,31.2z"/>
	<path class="st0" d="M153.6,29.6c-0.5,0-0.8-0.3-0.8-0.9v-3.6c0-3-1.9-4.5-5.6-4.5c-1.7,0-3,0.3-3.9,1s-1.5,1.6-1.6,2.8l3.7,0.8
		c0.1-0.6,0.2-1,0.5-1.2s0.7-0.3,1.1-0.3c0.4,0,0.7,0.1,0.9,0.4c0.2,0.2,0.3,0.6,0.3,1v0.4l-2.4,0.5c-1.6,0.3-2.7,0.8-3.4,1.4
		s-1,1.4-1,2.3s0.3,1.6,0.9,2c0.6,0.5,1.5,0.7,2.6,0.7c1,0,1.8-0.2,2.5-0.5s1.2-0.8,1.5-1.3c0.2,0.6,0.6,1.1,1.1,1.4
		c0.5,0.3,1.3,0.5,2.1,0.5c0.6,0,1.1-0.1,1.6-0.4l0.4-2.4C154.1,29.5,153.8,29.6,153.6,29.6z M148.5,28.3c0,0.5-0.2,0.8-0.5,1.1
		c-0.3,0.3-0.7,0.4-1.1,0.4c-0.3,0-0.6-0.1-0.8-0.3s-0.3-0.4-0.3-0.8c0-0.7,0.4-1.1,1.3-1.3l1.4-0.4L148.5,28.3L148.5,28.3z"/>
	<path class="st0" d="M167,20.8v11.3h-4.1l-0.1-2.2c-0.7,1.6-2,2.5-3.9,2.5c-2.5,0-3.7-1.3-3.7-3.9v-7.6h4.6v6.3
		c0,0.6,0.1,1,0.3,1.3c0.2,0.2,0.5,0.4,0.9,0.4c0.5,0,0.9-0.2,1.1-0.5c0.3-0.4,0.4-0.9,0.4-1.6v-5.9L167,20.8L167,20.8z"/>
	<path class="st0" d="M170.5,31.9c-0.9-0.3-1.7-0.8-2.3-1.4l2.1-2.5c0.4,0.5,0.9,0.8,1.4,1.1c0.6,0.2,1.2,0.4,1.9,0.4
		c0.4,0,0.7,0,0.9-0.1s0.4-0.2,0.4-0.4s-0.1-0.3-0.4-0.4c-0.3-0.1-0.8-0.3-1.4-0.4c-1.7-0.3-2.8-0.8-3.6-1.4
		c-0.7-0.6-1.1-1.3-1.1-2.3c0-0.6,0.2-1.3,0.6-1.8c0.4-0.6,1.1-1.1,1.9-1.4c0.9-0.4,1.9-0.6,3.2-0.6c2.4,0,4.2,0.6,5.3,1.9l-2.1,2.2
		c-0.7-0.8-1.7-1.2-3.1-1.2c-0.5,0-0.8,0.1-1.1,0.2c-0.2,0.1-0.4,0.3-0.4,0.4c0,0.2,0.1,0.3,0.4,0.4c0.3,0.1,0.7,0.2,1.3,0.3
		c1.7,0.3,2.9,0.7,3.7,1.3s1.1,1.4,1.1,2.4c0,1.1-0.5,2.1-1.4,2.8s-2.3,1.1-4.2,1.1C172.6,32.3,171.4,32.1,170.5,31.9z"/>
	<path class="st0" d="M192.4,26.1c0-1.7-0.5-3.1-1.5-4.1s-2.5-1.5-4.3-1.5c-1.9,0-3.4,0.5-4.5,1.5s-1.6,2.5-1.6,4.3
		c0,1.9,0.5,3.3,1.6,4.3s2.6,1.5,4.7,1.5c1.4,0,2.6-0.3,3.5-0.8c1-0.5,1.6-1.3,1.9-2.3l-3.7-1.1c-0.1,0.3-0.3,1.5-2,1.4
		c-0.5,0-0.8-0.2-1.1-0.5c-0.4-0.4-0.6-1.3-0.5-1.9h7.4C192.2,27.1,192.4,26.7,192.4,26.1z M184.8,25.3c0.1-0.6,0.3-1.1,0.6-1.4
		s0.7-0.5,1.2-0.5s1,0.2,1.3,0.6c0.3,0.3,0.4,0.8,0.5,1.4L184.8,25.3z"/>
	<path class="st0" d="M106.9,22.1c-1.1-1-2.6-1.5-4.5-1.5s-3.4,0.5-4.5,1.5s-1.6,2.5-1.6,4.3s0.5,3.3,1.6,4.3s2.6,1.5,4.5,1.5
		s3.4-0.5,4.5-1.5s1.6-2.5,1.6-4.3S108,23.1,106.9,22.1z M103.8,28.7c-0.3,0.5-0.8,0.8-1.5,0.8s-1.2-0.3-1.5-0.8
		c-0.3-0.4-0.4-1.2-0.4-2.3s0.1-1.8,0.4-2.3s0.8-0.7,1.5-0.7s1.2,0.3,1.5,0.8s0.4,1.2,0.4,2.3S104.1,28.3,103.8,28.7z"/>
	<path class="st0" d="M52.7,22.1c-1.1-1-2.6-1.5-4.5-1.5s-3.4,0.5-4.5,1.5s-1.6,2.5-1.6,4.3s0.5,3.3,1.6,4.3s2.6,1.5,4.5,1.5
		s3.4-0.5,4.5-1.5s1.6-2.5,1.6-4.3S53.8,23.1,52.7,22.1z M49.6,28.7c-0.3,0.5-0.8,0.8-1.5,0.8s-1.2-0.3-1.5-0.8
		c-0.3-0.4-0.4-1.2-0.4-2.3s0.1-1.8,0.4-2.3c0.3-0.5,0.8-0.7,1.5-0.7s1.2,0.3,1.5,0.8s0.4,1.2,0.4,2.3S49.8,28.3,49.6,28.7z"/>
</g>
<path class="st1" d="M18.2,21l9.6-4.1c0,0-8.3-3.4-16.5,2.1C4,23.9,1.2,29.7,1.2,29.7S8.2,21.8,18.2,21z"/>
<path class="st0" d="M13.5,6.2L10.3,16H0l7,5.1c2.9-2.7,6.1-4.6,9.5-5.5L13.5,6.2z"/>
<path class="st0" d="M13.3,23.1C11.1,23.9,9,25,7,26.3l-1.9,5.9l8.3-6.1l8.3,6.1l-3.3-10.1C18.5,22.1,16,22.2,13.3,23.1z"/>
</svg>
