<svg xmlns="http://www.w3.org/2000/svg" width="429.305" height="110.107" viewBox="0 0 429.305 110.107">
  <defs>
    <style>
      .a {
        fill: #005596;
      }

      .b {
        fill: #be0f34;
      }
    </style>
  </defs>
  <g>
    <path class="a" d="M252.124,65.471s0-15.153,0-15.244L245.01,65.471h-2.353s-7.06-15.08-7.117-15.2c0,.075,0,15.2,0,15.2h-3.26V43.313h3.338l8.359,17.535,8.36-17.535h3.192V65.471Z"/>
    <path class="a" d="M216.852,66.083c-6.97,0-12.03-4.917-12.03-11.691s5.06-11.691,12.03-11.691c6.95,0,11.994,4.917,11.994,11.691S223.8,66.083,216.852,66.083Zm0-20.4c-4.946,0-8.4,3.581-8.4,8.707,0,5.044,3.533,8.706,8.4,8.706,4.847,0,8.364-3.662,8.364-8.706C225.216,49.266,221.777,45.685,216.852,45.685Z"/>
    <polygon class="a" points="175.707 33.85 175.707 11.692 179.225 11.692 179.225 30.866 189.643 30.866 189.643 33.85 175.707 33.85"/>
    <polygon class="a" points="192.123 33.85 192.123 11.692 206.059 11.692 206.059 14.676 195.641 14.676 195.641 20.686 204.219 20.686 204.219 23.669 195.641 23.669 195.641 30.866 206.059 30.866 206.059 33.85 192.123 33.85"/>
    <path class="a" d="M226.636,33.85l-2.65-6.043h-9.343l-2.65,6.043h-3.5l9.75-22.158h2.287l9.75,22.158Zm-3.893-8.956-3.428-7.879-3.428,7.879Z"/>
    <path class="a" d="M241.748,34.462c-6.97,0-12.029-4.916-12.029-11.69,0-6.691,5.059-11.547,12.029-11.547a13.96,13.96,0,0,1,7.828,2.322l.116.086V17.4a12.262,12.262,0,0,0-7.944-3.189c-5.024,0-8.4,3.441-8.4,8.564s3.454,8.705,8.4,8.705a11.667,11.667,0,0,0,5.346-1.141V25.9h-4.528V22.915h8.047V32.1l-.178.074c-.16.066-.358.155-.589.26A19.4,19.4,0,0,1,241.748,34.462Z"/>
    <path class="a" d="M264.3,34.309c-6.357,0-9.858-3.858-9.858-10.863V11.539h3.592V23.481c0,5.061,2.192,7.735,6.34,7.735s6.339-2.674,6.339-7.735V11.539h3.445V23.446C274.156,30.451,270.654,34.309,264.3,34.309Z"/>
    <polygon class="a" points="278.194 33.85 278.194 11.692 292.13 11.692 292.13 14.676 281.712 14.676 281.712 20.686 290.291 20.686 290.291 23.669 281.712 23.669 281.712 30.866 292.13 30.866 292.13 33.85 278.194 33.85"/>
    <path class="a" d="M313.435,34.462c-5.507,0-9.5-3.884-9.5-9.236s4-9.237,9.5-9.237c5.489,0,9.473,3.885,9.473,9.237S318.924,34.462,313.435,34.462Zm0-16.007c-3.845,0-6.531,2.784-6.531,6.771a6.521,6.521,0,1,0,13.032,0C319.936,21.239,317.263,18.455,313.435,18.455Z"/>
    <polygon class="a" points="325.481 33.982 325.481 16.47 336.541 16.47 336.541 18.935 328.367 18.935 328.367 23.528 335.097 23.528 335.097 25.992 328.367 25.992 328.367 33.982 325.481 33.982"/>
    <path class="a" d="M194.307,65.471,188.914,50.2l-5.392,15.268h-2.246l-7.823-22.158h3.631L182.5,59.637l5.357-16.324h2.257s5.331,16.246,5.352,16.312c.02-.069,5.423-16.312,5.423-16.312h3.484l-7.823,22.158Z"/>
    <polygon class="a" points="260.035 65.471 260.035 43.313 273.972 43.313 273.972 46.297 263.554 46.297 263.554 52.307 272.132 52.307 272.132 55.29 263.554 55.29 263.554 62.486 273.972 62.486 273.972 65.471 260.035 65.471"/>
    <polygon class="a" points="293.757 65.471 281.038 49.908 281.038 65.471 277.777 65.471 277.777 43.313 279.893 43.313 292.612 58.877 292.612 43.313 295.874 43.313 295.874 65.471 293.757 65.471"/>
    <polygon class="a" points="314.282 65.471 304.532 43.313 308.177 43.313 315.499 60.078 322.821 43.313 326.319 43.313 316.57 65.471 314.282 65.471"/>
    <path class="a" d="M338.211,66.083c-6.97,0-12.029-4.917-12.029-11.691S331.241,42.7,338.211,42.7c6.95,0,11.994,4.917,11.994,11.691S345.161,66.083,338.211,66.083Zm0-20.4c-4.946,0-8.4,3.581-8.4,8.707,0,5.044,3.533,8.706,8.4,8.706,4.847,0,8.364-3.662,8.364-8.706C346.575,49.266,343.136,45.685,338.211,45.685Z"/>
    <polygon class="a" points="357.948 65.471 357.948 46.297 350.107 46.297 350.107 43.313 369.307 43.313 369.307 46.297 361.466 46.297 361.466 65.471 357.948 65.471"/>
    <polygon class="a" points="372.009 65.471 372.009 43.313 385.946 43.313 385.946 46.297 375.528 46.297 375.528 52.307 384.105 52.307 384.105 55.29 375.528 55.29 375.528 62.486 385.946 62.486 385.946 65.471 372.009 65.471"/>
    <path class="a" d="M404.179,65.722c-2.72,0-4.813-1.366-6.4-4.175l-2.826-5h-2.747v8.922h-3.521V43.313h7.577c4.7,0,7.5,2.474,7.5,6.618a6.1,6.1,0,0,1-5.159,6.367l2.431,4.024c1.359,2.252,2.5,2.7,3.913,2.7a5.524,5.524,0,0,0,1.54-.221v2.6A8,8,0,0,1,404.179,65.722Zm-7.914-12.156c3.322,0,4.019-1.977,4.019-3.635s-.7-3.634-4.019-3.634h-4.056v7.269Z"/>
    <path class="a" d="M415.629,65.939a10.543,10.543,0,0,1-7.567-2.711l-.114-.115.83-3.326a9.178,9.178,0,0,0,6.851,3.239c2.6,0,4.351-1.4,4.351-3.49,0-1.886-.8-3.117-5.012-4.219-4.162-1.079-6.363-3.352-6.363-6.573,0-3.472,3.04-5.9,7.392-5.9a9.944,9.944,0,0,1,6.328,2.087l-.825,2.913a10.245,10.245,0,0,0-5.5-2.089c-2.54,0-4.056,1.117-4.056,2.987,0,1.1.481,2.486,4.24,3.464,4.933,1.271,7.133,3.454,7.133,7.076C423.314,63.857,419.33,65.939,415.629,65.939Z"/>
    <path class="a" d="M0,66.144V62.675c1.617-.29,3.171-.97,3.44-2.85V6.318C3.171,4.438,1.617,3.758,0,3.469V0H23.448V3.471c-1.668.29-3.549.62-3.549,2.994V60.723s11.061.908,15.09-12.433l4.069,1.519L34.62,66.145Z"/>
    <path class="a" d="M136.287,0H122.952V3.471c1.686.163,3.636-.045,3.319,2.9L120.35,38.748,115.1,6.374c-.3-2.81,1.283-2.74,2.968-2.9V0l0,0H83.594V3.469c1.617.289,3.226.751,3.042,2.838L80.778,38.531,73.307,0H63.69L56.812,39.037l-5.7-32.256c-.093-2.75,2.359-3.147,4.045-3.31V0H31.226V3.469c1.617.289,3.171.969,3.44,2.849L47.21,66.142l11.007,0,7.1-30.867,4.988,30.864,12.661,0L94.306,5.952a2.626,2.626,0,0,1,5.136-.037l11.111,60.227h11.878L133.387,6.508c.37-3.016,3.915-3.037,3.915-3.037L137.3,0H130.76"/>
    <path class="b" d="M158.893,57.615a3.567,3.567,0,0,0,1.776-1.518c.369-.506.74.29,1.258.146,1.33-.8,3.032-.507,4.216-1.591a5.194,5.194,0,0,0,3.551-1.879l-1.924-.145c-.444-.289-1.183-.723-.886-1.446,1.182-.289,1.33-1.518,2.439-1.879-9.394.939-18.271,3.614-27.3,5.06L123.9,58.483l-3.7,1.084c-1.11.868-2.811.146-3.772,1.375-1.923-.653-2.737,1.157-4.439,1.011-.37-.151-.664.129-.924.414l-1.22-.2v.5C103.267,64.844,96.609,66.8,90.173,69.4a74.862,74.862,0,0,1-9.617,4.048c-3.4.723-6.139,3.325-9.764,3.759-4.66,1.879-8.8,4.7-13.612,6.072-1.923,2.023-4.882,1.662-6.8,3.687-2.885-.217-4.29,3.035-7.1,3.108A136.874,136.874,0,0,0,30.846,97.88c-.591.507-1.627,1.011-2.071,1.879,1.11.58,1.184,1.518,1.776,2.313-.445,1.952,2.737,2.17,1.553,4.122,3.4-.073-.591,3.831,3.18,3.107.74,1.231,2.886.8,3.921.363,3.551-1.737,6.51-4.772,10.283-6.074,2.071-1.3,3.995-2.963,6.435-3.468,3.625-2.822,8.063-4.7,12.206-6.724,1.257-1.662,3.328-1.227,4.66-2.6,3.329-1.952,7.324-2.458,10.652-4.554,1.109.506,1.406-.8,2.293-.868,6.14-2.168,11.836-5.277,18.272-6.723,5.252-2.531,11.1-3.47,16.348-5.929,2.515-.722,4.957-1.371,7.471-2.094,2.219-.217,4.734-1.517,7.1-1.517,1.034-.869,2.514-.508,3.7-.869l3.4-.868.148-.361c4.29-1.084,9.321-1.3,13.536-3.108H153.2a3.782,3.782,0,0,1,2.514-1.23c3.625-.073,6.732-1.733,10.061-2.6l-9.173.649-.592-.5c1.554-1.156,3.773-.578,5.549-1.229,1.257-1.374,2.884-.433,4.068-1.735-2.294,1.156-5.178.722-7.841,1.083l-.3-.361C157.71,57.327,158.376,57.761,158.893,57.615Zm9.477-.116c-.827.068-.971.043-1.48.386a1.322,1.322,0,0,0-.588.762c.86.154,3.9-1.035,3.9-1.035A8.329,8.329,0,0,0,168.37,57.5Z"/>
    <path class="a" d="M427.019,47.294a2.225,2.225,0,1,1,2.286-2.224A2.251,2.251,0,0,1,427.019,47.294Zm0-4.159a1.936,1.936,0,1,0,1.99,1.935A1.959,1.959,0,0,0,427.019,43.135Zm.561,3.235-.631-1.02h-.256v1.02h-.7V43.731h1.2c.661,0,.936.386.936.81a.744.744,0,0,1-.5.732l.769,1.1Zm-.887-2.2v.732h.335c.276,0,.4-.125.4-.356s-.129-.376-.4-.376Z"/>
  </g>
</svg>
