<?xml version="1.0" encoding="UTF-8" standalone="no"?>
<svg
   xml:space="preserve"
   viewBox="0 0 7835 1487"
   version="1.1"
   id="svg38"
   sodipodi:docname="LWVSD logo RGB-3.svg"
   inkscape:version="1.4.3 (0d15f75, 2025-12-25)"
   xmlns:inkscape="http://www.inkscape.org/namespaces/inkscape"
   xmlns:sodipodi="http://sodipodi.sourceforge.net/DTD/sodipodi-0.dtd"
   xmlns="http://www.w3.org/2000/svg"
   xmlns:svg="http://www.w3.org/2000/svg"><defs
     id="defs38" /><sodipodi:namedview
     id="namedview38"
     pagecolor="#ffffff"
     bordercolor="#666666"
     borderopacity="1.0"
     inkscape:showpageshadow="2"
     inkscape:pageopacity="0.0"
     inkscape:pagecheckerboard="0"
     inkscape:deskcolor="#d1d1d1"
     inkscape:zoom="0.1605543"
     inkscape:cx="3216.9802"
     inkscape:cy="601.04276"
     inkscape:window-width="1920"
     inkscape:window-height="1001"
     inkscape:window-x="1271"
     inkscape:window-y="-9"
     inkscape:window-maximized="1"
     inkscape:current-layer="svg38" /><g
     id="g1"><path
       class="a"
       d="M 1.999853,896.14749 V 849.25287 C 23.857888,845.3326 44.864312,836.14022 48.500559,810.72602 V 87.407956 C 44.864312,61.993749 23.857888,52.801377 1.999853,48.894618 V 2 H 318.96164 v 46.921655 c -22.54744,3.920276 -47.97413,8.381281 -47.97413,40.473476 V 822.86535 c 0,0 149.51869,12.27453 203.98129,-168.07171 l 55.00331,20.53413 -59.99132,220.83324 z"
       id="path13-1"
       style="fill:#015696;stroke-width:13.5179" /><path
       class="a"
       d="m 1844.2794,2 h -180.2578 v 46.921655 c 22.7907,2.203466 49.1502,-0.608319 44.8651,39.202765 l -80.038,437.6786 -70.9677,-437.638045 c -4.0553,-37.986128 17.3432,-37.039854 40.1204,-39.202766 V 2 2 H 1131.994 v 46.894618 c 21.8581,3.906759 43.608,10.152165 41.1207,38.364638 L 1093.9283,522.86957 992.938,2 H 862.93879 L 769.96441,529.70978 692.91383,93.66688 C 691.65669,56.491844 724.80196,51.125121 747.59271,48.921655 V 2 H 424.1019 v 46.894618 c 21.85803,3.906759 42.86446,13.099131 46.5007,38.513338 L 640.16797,896.12045 H 788.95671 L 884.932,478.85433 952.35803,896.0799 H 1123.505 L 1276.7951,82.460297 a 35.497341,35.49878 0 0 1 69.4266,-0.500174 l 150.1946,814.160327 h 160.5626 L 1805.0782,89.976413 c 5.0016,-40.770876 52.9216,-41.054758 52.9216,-41.054758 V 2 h -88.4054"
       id="path14-4"
       style="fill:#015696;stroke-width:13.5179" /><path
       class="b"
       d="m 2143.6054,780.89899 a 48.009766,48.184536 0 0 0 23.9039,-20.50578 c 4.9665,-6.83526 9.96,3.91744 16.932,1.97223 17.901,-10.80674 40.8089,-6.84877 56.7449,-21.4919 a 69.90825,70.162736 0 0 0 47.7944,-25.38232 l -25.8959,-1.95872 c -5.976,-3.90394 -15.9225,-9.76659 -11.9251,-19.53318 15.9091,-3.90393 17.9011,-20.50578 32.8276,-25.38232 -126.4379,12.68441 -245.9172,48.81943 -367.4423,68.35261 l -243.9252,55.65469 -49.7999,14.64313 c -14.9399,11.72531 -37.8344,1.97223 -50.7689,18.57408 -25.8825,-8.821 -36.8385,15.62924 -59.7464,13.65701 -4.98,-2.03977 -8.9371,1.74259 -12.4365,5.59249 l -16.4205,-2.70169 v 6.75421 c -88.5361,29.4078 -178.149,55.8303 -264.7738,90.9522 a 1007.5994,1011.2674 0 0 1 -129.4393,54.6821 c -45.762,9.76657 -82.6274,44.91547 -131.41776,50.77807 -62.72093,25.3824 -118.44295,63.4896 -183.20969,82.0232 -25.88248,27.3275 -65.70891,22.451 -91.52409,49.8055 -38.83044,-2.9313 -57.74093,40.9981 -95.56191,41.9842 a 1842.2452,1848.9516 0 0 0 -167.35448,105.4467 c -7.95452,6.8488 -21.89849,13.657 -27.87447,25.3823 14.93996,7.8349 15.93596,20.5058 23.90394,31.245 -5.98945,26.3684 36.83844,29.3132 20.90248,55.6817 45.76205,-0.9861 -7.95452,51.7507 42.80097,41.9706 9.95998,16.6289 38.8439,10.8068 52.77441,4.9036 47.79441,-23.4641 87.62085,-64.4622 138.40326,-82.0501 27.87446,-17.561 53.7704,-40.0255 86.61139,-46.8472 48.79041,-38.1208 108.52333,-63.4896 164.28569,-90.8306 16.9185,-22.451 44.793,-16.5749 62.721,-35.1219 44.80636,-26.3685 98.57676,-33.2037 143.36966,-61.5174 14.9265,6.8353 18.924,-10.8067 30.8625,-11.7253 82.6409,-29.2862 159.3057,-71.2839 245.9306,-90.8171 70.6889,-34.1898 149.3996,-46.8742 220.0347,-80.09137 33.8504,-9.7531 66.7183,-18.5201 100.5553,-28.2867 29.8665,-2.9313 63.7169,-20.4922 95.5619,-20.4922 13.9171,-11.7388 33.837,-6.8623 49.7999,-11.7388 l 45.7621,-11.7254 1.992,-4.8765 c 57.7409,-14.6431 125.4553,-17.5609 182.1868,-41.98416 h -33.7697 a 50.903543,51.088847 0 0 1 33.837,-16.61535 c 48.7904,-0.98612 90.6088,-23.4101 135.4152,-35.1219 l -123.4633,8.76697 -7.9679,-6.75421 c 20.9159,-15.61574 50.7824,-7.80787 74.6863,-16.60185 16.9185,-18.56057 38.817,-5.84915 54.7529,-23.43711 -30.8759,15.61573 -69.6929,9.75308 -105.5353,14.62962 l -4.0378,-4.87654 c 3.0149,-8.87503 11.9788,-3.01238 18.9374,-4.98461 z m 127.5549,-1.56698 c -11.1309,0.91858 -13.0691,0.58087 -19.9199,5.21425 a 17.793359,17.858132 0 0 0 -7.9142,10.29342 c 11.5752,2.0803 52.4918,-13.98121 52.4918,-13.98121 a 112.10354,112.51163 0 0 0 -24.6577,-1.51295 z"
       id="path15-2"
       style="fill:#be1035;stroke-width:13.4839" /><path
       class="a"
       d="m 7791.483,184.5265 a 40.077139,40.077139 0 1 1 41.1759,-40.05912 40.545457,40.545457 0 0 1 -41.1759,40.05912 z m 0,-74.91273 a 34.871614,34.871614 0 1 0 35.8443,34.85361 35.285895,35.285895 0 0 0 -35.8443,-34.85361 z m 10.1049,58.26946 -11.3657,-18.37244 h -4.6112 v 18.37244 h -12.6085 v -47.53419 h 21.6146 c 11.906,0 16.8595,6.95271 16.8595,14.58988 a 13.401075,13.401075 0 0 1 -9.0062,13.18493 l 13.8514,19.81341 z M 7785.611,128.2564 v 13.18492 h 6.0341 c 4.9714,0 7.2049,-2.25152 7.2049,-6.41234 0,-4.16082 -2.3236,-6.77258 -7.2049,-6.77258 z"
       id="path16-5"
       style="fill:#005596;stroke-width:18.0122" /><path
       fill="#045898"
       d="M5214.86 241.135c-4.62-9.865-8.859-19.076-13.099-28.287l-1.916.42V410.89h-44.967V112.103c7.413-1.286 14.993-.468 22.491-.61 7.635-.145 15.275-.032 23.467-.032L5313 346.586l111.994-234.702h44.027V410.94h-46.576V212.083l-1.795-.422-93.154 199.38h-32.92c-26.335-56.182-52.836-112.718-79.717-169.906"
       id="path9" /><path
       fill="#035797"
       d="M4539.137 293.093c-11.838 33.298-23.373 65.873-34.923 98.444-2.314 6.525-4.682 13.031-7.058 19.635h-31.246c-35.11-99.467-70.256-199.044-105.637-299.282h50.276l72.532 217.693 71.537-217.701h31.972l70.431 214.51 2.275-.034 71.064-214.407h48.514l-105.606 299.23h-31.338l-72.375-204.54a66870 66870 0 0 1-30.418 86.452M5082.941 171.036c15.585 23.573 23.246 48.855 25.614 76.287 2.308 26.731-1.248 52.41-11.28 76.965-17.05 41.74-47.463 70.408-89.902 85.09-45.08 15.596-90.237 14.4-134.07-5.248-45.204-20.26-73.198-55.34-84.89-103.202-8.17-33.442-6.427-66.743 5.86-98.96 16.617-43.571 47.216-73.855 91.366-88.65 49.695-16.655 98.82-14.777 145.793 10.52 20.868 11.239 37.87 26.893 51.51 47.198m-58.1 3.101c-7.504-5.453-14.543-11.745-22.596-16.204-25.14-13.92-52.334-17.097-80.14-11.418-33.397 6.82-58.93 25.082-74.59 55.969-12.569 24.787-15.72 50.867-12.044 78.35 6.366 47.597 40.58 88.062 93.772 96.083 47.622 7.18 95.745-14.981 117.027-59.24 10.603-22.052 14.505-45.095 12.159-69.509-2.703-28.124-12.661-52.726-33.589-74.03M6436.345 329.564c-25.088-64.965-18.613-124.66 27.288-177.531 17.268-19.89 39.885-33.04 65.3-40.601 44.642-13.282 89.02-12.508 131.34 7.512 51.222 24.232 79.095 66.053 86.135 122.157 3.074 24.499 1.071 48.53-6.714 71.765-18.861 56.293-58.554 90.024-115.912 102.58-40.065 8.771-79.33 4.891-116.567-13.314-31.944-15.617-55.38-39.752-70.87-72.568m109.502-179.281c-2.15.882-4.305 1.753-6.45 2.648-25.05 10.459-43.315 28.124-54.965 52.51-11.353 23.758-14.205 48.782-10.776 74.813 7.156 54.335 48.764 94.598 103.454 97.609 46.068 2.536 83.027-15.357 105.464-56.498 20.523-37.633 20.455-77.223 2.733-116.126-11.486-25.214-30.718-43.109-56.826-53.154-26.76-10.296-53.807-10.4-82.634-1.802M5969.659 166v-54.1h44.099v299.592c-8.819 0-17.114.425-25.322-.236-2.785-.224-6.001-2.652-7.917-4.981-29.564-35.934-58.947-72.018-88.37-108.068a262123 262123 0 0 1-73.75-90.39c-.84-1.031-1.541-2.175-2.06-2.915-1.214.404-1.565.455-1.835.631-.231.152-.468.425-.527.684a10 10 0 0 0-.263 1.968c-.039 1.999-.03 3.999-.03 5.999-.011 64.329-.021 128.657-.044 192.986 0 .657-.145 1.319-.267 1.97-.059.312-.222.604-.617 1.636h-43.761V111.494c8.967 0 17.602-.512 26.117.275 3.03.28 6.398 3.193 8.543 5.788 23.505 28.44 46.798 57.056 70.148 85.624 30.075 36.797 60.146 73.597 90.239 110.38 1.195 1.462 2.592 2.76 5.617 5.947zM7294.013 111.47c28.322 0 55.647-.043 82.972.015 19.703.041 38.277 4.862 55.242 14.77 16.407 9.582 27.547 23.864 33.453 41.935 6.582 20.139 6.961 40.733 1.236 60.955-8.633 30.49-29.492 48.903-59.836 56.976-.952.253-1.93.421-2.871.705-.258.078-.432.432-1.451 1.521 2.184 3.868 4.44 8.15 6.957 12.27 10.23 16.74 20.28 33.597 30.896 50.09 9.187 14.272 21.645 24.716 39.192 26.196 8.768.74 17.736-.903 27.232-1.508v34.699c-2.754.772-5.83 1.962-9.017 2.48-36.633 5.954-69.081-1.24-93.166-31.6-8.425-10.62-15.512-22.388-22.443-34.086-9.826-16.583-19.073-33.515-28.279-50.455-2.541-4.676-5.585-6.638-11.025-6.366-9.222.462-18.483.127-28.773.127v120.82h-47.317V111.47zm113.227 52.129c-6.843-5.707-14.865-9.293-23.57-9.727-20.23-1.008-40.5-1.204-60.755-1.666-2.562-.059-5.133.257-7.975.414v96.515c21.839 0 43.098.687 64.284-.257 12.767-.568 24.059-5.81 33.294-15.73 13.213-14.197 14.54-54.49-5.278-69.55M2940.704 122.636c49.179-27.347 99.997-29.552 152.022-13.124 13.484 4.259 26.034 11.52 38.927 17.586 4.908 2.31 7.056 6.054 6.848 11.983-.5 14.259-.162 28.547-.162 44.156-3.13-2.096-5.337-3.334-7.271-4.907-22.63-18.4-48.119-30.932-76.944-35.538-39.38-6.294-75.637.66-105.001 29.604-20.051 19.765-29.286 44.915-31.143 72.629-2.31 34.465 5.551 66.037 29.041 92.502 17.552 19.775 39.971 30.736 65.842 34.054 27.033 3.466 53.594.588 79.118-9.558 3.362-1.336 6.599-2.986 9.971-4.526v-58.962h-59.586v-40.552h107.337v124.419c-28.346 13.625-57.77 25.382-89.717 29.786-29.735 4.1-59.083 2.79-87.577-7.144-51.427-17.93-85.756-52.747-99.201-105.79-13.03-51.405-5.573-99.705 27.98-142.282 10.78-13.68 23.926-24.935 39.516-34.336"
       id="path10" /><path
       fill="#8eb3d1"
       d="M5294.065 697.912c-12.832 61.852-58.502 106.8-119.052 118.335-36.63 6.978-71.938 3.873-106.11-11.65-26.56-12.065-47.36-30.574-62.9-54.983-19.276-30.277-26.025-63.958-23.59-99.223 2.882-41.754 18.995-77.865 50.58-106.167 22.173-19.867 48.459-31.36 77.672-36.029 22.49-3.593 44.995-3.248 67.35 1.702 37.225 8.242 67.743 26.948 90.06 58.12 16.19 22.612 25.253 47.83 28.433 75.634 2.073 18.126.843 35.717-2.443 54.261M5074.68 559.59c-5.888 4.859-12.36 9.166-17.56 14.673-21.01 22.244-30.663 49.5-32.8 79.496-1.482 20.798 1.672 41.153 9.518 60.576 11.767 29.127 31.775 50.224 61.015 62.408 21.49 8.955 43.707 11.571 66.402 7.069 38.452-7.63 66.622-29.031 82.753-65.095 11.277-25.211 14.426-51.652 9.82-78.94-5.612-33.25-20.098-61.742-48.942-80.139-42.339-27.003-85.822-26.51-130.206-.048M2687.527 812.601c-59.59-19.876-94.095-60.79-105.054-121.294-6.324-34.916-1.662-69.07 13.815-101.08 16.282-33.673 42.194-57.754 76.853-72.135 25.729-10.676 52.797-14.085 80.222-11.741 40.166 3.433 75.495 18.468 102.792 49.094 21.84 24.505 34.243 53.294 38.221 86.08 2.937 24.202 1.434 47.913-5.852 70.892-17.546 55.338-55.31 89.627-111.576 103.234-29.68 7.178-59.333 5.314-89.421-3.05m55.142-272.483c-7.6.527-15.277.533-22.784 1.666-44.614 6.737-74.13 32.134-89.59 74.043-8.437 22.872-10.37 46.575-6.157 70.635 5.942 33.932 21.421 62.223 51.032 80.976 24.698 15.641 51.773 21.548 81.084 16.786 31.1-5.052 56.391-19.478 74.317-45.42 23.984-34.711 28.462-72.925 18.152-113.273-5.388-21.086-15.573-39.7-31.3-54.733-20.275-19.377-45.077-28.813-74.754-30.68"
       id="path11" /><path
       fill="#025697"
       d="M3250.334 150c0 37.327-.392 73.66.18 109.978.254 16.184 1.274 32.416 5.426 48.32 11.92 45.66 46.884 65.187 91.982 60.302 3.626-.393 7.273-.844 10.823-1.65 34.992-7.947 52.252-32.336 58.786-65.444 2.806-14.219 3.812-28.975 3.957-43.503.474-47.654.177-95.315.177-142.973v-11.115h46.168c.18 3.235.48 6.134.48 9.034.029 54.656.222 109.314-.075 163.97-.123 22.794-4.46 44.93-13.792 65.888-14.556 32.693-38.954 54.148-73.587 63.48-30.478 8.214-61.117 8.33-91.586 0-40.628-11.107-66.107-38.005-78.918-77.46-6.09-18.758-8.737-38.13-8.712-57.883.066-51.658.022-103.315.022-154.973v-12.214c8.206-.096 16.029-.225 23.853-.27 7.92-.046 15.842-.01 24.816-.01z"
       id="path12" /><path
       fill="#8db3d1"
       d="M4075.806 748V514.89c3.599-.324 6.165-.754 8.733-.757 30.982-.047 61.99-.82 92.94.186 32.476 1.054 63.998 7.153 92.338 24.523 32.801 20.103 52.24 49.618 59.799 86.854 2.688 13.241 4.192 27.014 3.95 40.503-.67 37.685-11.27 72.218-37.74 100.176-7.44 7.859-16.524 14.544-25.81 20.2-23.982 14.609-50.279 22.728-78.422 23.452-36.574.941-73.167 1.176-109.751 1.673-1.592.022-3.188-.365-6.037-.717zm154.547-187.74c-27.473-9.45-90.375-14.507-113.097-9.09-1.972 11.699-1.45 216.018.804 224.028 2.948.164 6.195.49 9.443.502 15.328.056 30.655-.007 45.982.033 18.782.049 37.022-2.939 54.644-9.525 30.213-11.292 49.845-32.308 58.115-63.586 4.958-18.755 6.363-37.6 4.227-57.142-4.285-39.21-21.433-68.682-60.118-85.22"
       id="path13" /><path
       fill="#8eb3d1"
       d="M3818.426 617.627c18.076 22.623 35.681 44.714 53.287 66.805 9.528 11.956 19.035 23.93 28.598 35.858 3.04 3.793 6.23 7.468 11.115 10.6V514.921h36.06V811.68c-6.804 0-13.377.346-19.878-.189-2.256-.185-4.888-2.107-6.408-3.993-21.7-26.917-43.242-53.962-64.815-80.982-25.505-31.945-51.015-63.886-76.497-95.85a3853 3853 0 0 1-25.937-32.883c-.775-.994-.875-2.513-1.288-3.788l-2.62 1.734v215.615c-12.6.819-24.394.231-35.974.35-2.28-7.629-3.138-279.064-.975-297.382 6.617-.035 13.48-.44 20.267.107 2.197.176 4.647 2.483 6.212 4.434 21.438 26.71 42.741 53.53 64.08 80.32a4348 4348 0 0 0 14.773 18.454"
       id="path14" /><path
       fill="#035697"
       d="M2653.112 351.175c-8.198 18.604-16.016 36.55-23.913 54.678h-48.763l132.043-300.019h32.028l131.949 299.805h-50.65l-35.742-81.144h-125.167c-3.738 8.53-7.571 17.277-11.785 26.68m114.87-78.059-40.452-93.389-45.166 103.79h90.098c-1.551-3.564-2.72-6.25-4.48-10.4"
       id="path15" /><path
       fill="#045898"
       d="M7072.008 411.516h-31.19V112.194h188.975v39.822h-139.624v79.87h114.91v41.253h-114.652v96.874h139.264v41.503z"
       id="path16" /><path
       fill="#035797"
       d="M3570.34 180.006v47.347c38.648.289 76.758-.023 115.422.18v40.34h-114.788V363.9h140.494c.412 14.045.149 27.475.184 41.604h-188.667V106.051h188.229v41.212H3570.34z"
       id="path17" /><path
       fill="#015696"
       d="M2359.668 282V105.947h188.042v41.33h-138.664v79.834h114.558v40.772h-113.472c-2.211 7.672-2.88 77.586-.973 96.293h138.624v40.554c-6.735 1.869-168.785 2.601-188.114.653z"
       id="path18" /><path
       fill="#035797"
       d="M5529.657 368V111.954H5717.7v40.05c-11.085.063-22.59.153-34.097.185-11.66.033-23.32.008-34.979.008h-70.339v79.77h114.652v41.236h-114.706v96.795h139.564v41.023h-188.14z"
       id="path19" /><path
       fill="#8eb3d1"
       d="M4718.756 710.986c5.356 15.832 13.885 29.003 24.554 40.511 12.166 13.123 27.179 22.691 44.312 27.943 35.783 10.968 70.84 7.467 105.242-6.548 6.89-2.808 9.31-6.885 9.106-14.301-.505-18.271-.166-36.565-.166-55.867-19.842-1.436-39.064.08-59.313-.973-1.28-10.893-.61-21.623-.443-33.006h99.189c.313 2.446.91 4.955.915 7.465.061 34.993-.064 69.987.154 104.98.034 5.375-1.409 8.626-6.537 10.796-20.826 8.814-41.497 18.002-63.751 22.809-42.222 9.119-83.393 7.06-122.26-13.229-42.453-22.16-68.13-57.391-77.62-104.214-2.166-10.68-3.84-21.705-3.758-32.556.517-68.285 35.837-130.531 112.383-150.903 44.527-11.851 87.7-6.387 129.3 12.598 19.902 9.082 19.76 9.395 19.76 31.39v22.12c-2.457-1.274-3.929-1.743-5.035-2.656-22.605-18.646-48.032-30.284-77.44-33.907-23.311-2.87-45.788-1.17-67.5 7.51-33.212 13.278-54.087 38.108-63.439 72.136-3.657 13.307-5.88 27.478-5.76 41.229.135 15.456 2.31 31.125 8.107 46.673"
       id="path20" /><path
       fill="#035797"
       d="M7718.735 131.026c1.075 1.242 2.237 2.175 2.083 2.765-3.414 13.073-6.974 26.109-10.741 40.019-15.913-11.245-31.581-19.94-49.097-24.713-20.8-5.67-41.415-6.154-61.12 4.086-19.713 10.244-22.332 32.425-15 47.143 5.347 10.73 15.494 17.326 26.568 21.624 9.882 3.837 20.006 7.156 30.215 10.022 17.66 4.96 34.735 11.182 50.772 20.21 56.974 32.076 53.648 113.218 7.634 144.771-14.497 9.942-30.493 16.312-47.796 18.856-30.92 4.546-61.1 1.197-89.56-11.923-11.046-5.09-20.997-12.61-31.27-19.296-4.23-2.754-5.549-6.427-3.894-11.957 3.698-12.354 6.4-25.006 9.895-39.093 3.137 2.786 5.58 4.689 7.712 6.893 17.64 18.244 39.02 29.61 63.784 34.714 16.912 3.485 33.64 3.242 49.921-3.19 23.85-9.42 34.923-32.359 27.534-56.681-3.635-11.966-12.035-19.572-22.594-25.31-13.525-7.35-28.066-11.906-42.862-15.84-15.453-4.106-30.507-9.3-44.18-17.825-18.352-11.444-33.219-26.209-38.461-47.738-9.739-39.996 3.556-74.04 42.644-92.58 14.314-6.788 29.399-9.724 45.206-10.668 27.496-1.642 53.435 3.185 77.717 16.253 4.964 2.672 9.586 5.977 14.89 9.458M6317.499 247.285c19.808-45.46 39.29-90.231 58.909-135.319h48.65c-43.802 100.115-87.614 199.295-131.69 299.502-9.512 0-19.09.338-28.608-.272-2.016-.13-4.524-3.4-5.593-5.771-9.29-20.585-18.298-41.296-27.397-61.967-32.654-74.18-65.313-148.359-97.95-222.547-1.188-2.698-2.168-5.486-3.512-8.917h50.247l97.957 224.028c13.466-30.668 26.064-59.358 38.987-88.737M4057.376 200.628c21.791 22.441 32.414 48.932 34.342 79.232 1.642 25.803-2.745 50.42-15.638 72.9-18.824 32.823-47.813 52.057-84.618 58.957-31.473 5.9-62.328 2.933-91.117-12.027-39.027-20.28-59.931-52.949-64.762-96.478-3.06-27.58 1.584-53.572 15.203-77.67 18.672-33.037 47.654-52.155 84.43-59.23 29.686-5.712 58.802-3.082 86.682 9.525 13.177 5.96 24.913 13.9 35.478 24.791m-179.479 108.15c8.35 39.033 33.58 63.711 72.142 70.093 35.429 5.863 74.427-11.699 90.626-45.606 7.884-16.503 10.273-33.446 9.724-51.324-.46-14.966-4.546-28.86-11.724-41.785-24.687-44.453-81.668-51.916-119.358-31.012-35.578 19.731-48.603 62.109-41.41 99.634"
       id="path21" /><path
       fill="#8eb3d1"
       d="M3644.051 808.585c-11.637-26.991-22.992-53.232-34.497-79.821-2.821-.228-5.406-.614-7.99-.617-37.33-.04-74.66.154-111.985-.194-6.707-.063-10.18 1.918-12.73 8.149-8.692 21.233-17.92 42.248-26.96 63.339-1.18 2.752-2.042 5.783-3.822 8.092-1.432 1.857-3.99 3.914-6.116 3.99-10.944.398-21.909.185-32.88.185.264-7.15 37.836-96.175 61.65-149.438 21.85-48.874 42.52-98.276 63.82-147.699h26.798l127.16 295.629c-2.268.668-3.707 1.447-5.155 1.463-10.33.113-20.666.198-30.993-.03-2.021-.045-4.012-1.496-6.3-3.048m-50.527-119.199-48.599-113.155c-17.686 41.003-34.302 79.548-50.504 118.987h100.27c-.33-1.852-.559-3.126-1.167-5.832M4508.197 712v65.131c12.388 1.108 23.943.445 35.445.561 11.326.115 22.655.025 33.983.025h69.71v33.436h-178.466V514.79h178.823c1.009 10.513.357 21.016.393 32.965-23.544.775-46.707.247-69.85.344-22.905.096-45.812.02-69.37.02v88.683c18.889 1.946 37.756.626 56.554.862 18.943.238 37.891.052 57.953.052.889 11.273.25 21.782.448 33.768-13.103.09-25.608.211-38.113.254-12.66.043-25.32.01-37.981.01h-39.284c-.084 13.543-.165 26.397-.245 40.252M3324.672 641.237c16.9 5.732 32.128 12.774 45.727 23.424 13.994 10.96 23 24.911 26.817 41.955 5.826 26.019 3.456 51.006-12.61 73.287-14.594 20.237-35.322 31.335-59.254 35.464-40.978 7.072-79.346-.214-113.807-24.487-10.893-7.673-11.05-8.177-7.78-21.526a1804 1804 0 0 1 5.33-21.244c.24-.934.887-1.764 1.655-3.235 1.858 1.511 3.704 2.733 5.214 4.282 18.293 18.758 40.648 30.277 66.26 34.094 17.772 2.648 35.889 2.352 52.614-6.662 16.962-9.14 26.183-23.059 26.948-42.371.802-20.223-7.873-35.169-25.45-45.04-14.325-8.046-29.798-13-45.594-17.192-23.832-6.325-45.836-16.092-62.753-34.878-11.341-12.594-16.856-27.642-18.168-44.363-4.079-51.967 35.01-76.66 68.586-82.56 29.166-5.126 57.65-2.298 84.807 10.028 6.32 2.868 12.204 6.73 18.172 10.328 3.871 2.334 5.02 5.414 3.378 10.148-2.925 8.432-5.036 17.146-7.724 26.574-3.513-2.094-6.638-3.837-9.644-5.767-22.803-14.647-47.5-22.235-74.768-19.561-13.58 1.332-26.202 5.769-35.39 16.313-14.591 16.742-14.55 47.356 11.696 62.494 13.09 7.55 27.08 12.534 41.575 16.389 4.496 1.195 8.955 2.527 14.163 4.106"
       id="path22" /><path
       fill="#025697"
       d="M6851.663 160.498a464 464 0 0 0-.329-7.933h-105.1v-40.349h258.83v39.663H6899.77v259.038h-46.485c-.355-.261-.68-.416-.876-.669-.19-.247-.353-.594-.354-.898-.141-82.636-.266-165.272-.393-248.852"
       id="path23" /><path
       fill="#8db3d1"
       d="M2935.806 762V514.762h179.748c.508 10.57.242 21.054.125 32.994-11.897.749-23.419.254-34.903.343-11.325.087-22.652.019-33.978.019h-68.667c-2.358 7.538-2.823 77.076-.579 88.874 18.55 1.608 37.43.481 56.259.684 18.899.203 37.802.044 57.345.044v33.799h-114.664V810.95h-40.686z"
       id="path24" /><path
       fill="#015596"
       d="M2176 406.185h-37.603V106.098h47.616v257.895h141.049v40.754c-.012.014-.202.296-.446.518-.23.211-.515.515-.777.516-49.613.15-99.226.276-149.838.404"
       id="path25" /><path
       fill="#035697"
       d="M4125.66 312V170.73h149.95v33.125h-109.154v61.404h89.419v34.6h-89.811c-.875 35.91-.034 71.035-.52 107.494-13.178.309-25.942.093-39.883.12z"
       id="path26" /><path
       fill="#8eb3d1"
       d="M4373.803 632c.09-38.948.176-76.896.302-114.844.002-.584.51-1.166 1.087-2.403h37.055c1.915 7.274 2.653 279.776.757 296.147h-39.201z"
       id="path27" /><path
       fill="#be1035"
       d="M2288.084 785.994c-13.251 3.952-25.42 9.266-40.1 8.888 3.098-9.56 9.576-13.802 17.421-15.36 11.351-2.254 22.891-2.42 36.243.894-5.348 2.266-9.07 3.843-13.564 5.578"
       id="path28" /></g></svg>
