<?xml version="1.0" encoding="utf-8"?>
<!-- Generator: Adobe Illustrator 24.3.0, SVG Export Plug-In . SVG Version: 6.00 Build 0)  -->
<svg version="1.1" id="Layer_1" xmlns="http://www.w3.org/2000/svg" xmlns:xlink="http://www.w3.org/1999/xlink" x="0px" y="0px"
	 viewBox="0 0 4350.6 896.8" style="enable-background:new 0 0 4350.6 896.8;" xml:space="preserve">
<style type="text/css">
	.st0{fill:url(#SVGID_1_);}
	.st1{fill:url(#SVGID_2_);}
	.st2{fill:url(#SVGID_3_);}
	.st3{fill:url(#SVGID_4_);}
	.st4{fill:url(#SVGID_5_);}
	.st5{fill:#3D3D3D;}
</style>
<g>
	<g>
		
			<linearGradient id="SVGID_1_" gradientUnits="userSpaceOnUse" x1="502.2149" y1="50.0737" x2="520.8789" y2="50.0737" gradientTransform="matrix(1 0 0 -1 0 895.9394)">
			<stop  offset="0" style="stop-color:#0071BC"/>
			<stop  offset="1" style="stop-color:#00A99D"/>
		</linearGradient>
		<path class="st0" d="M520.9,845.6c-6.2,0.3-12.5,0.5-18.7,0.5"/>
		
			<linearGradient id="SVGID_2_" gradientUnits="userSpaceOnUse" x1="72.7329" y1="414.2745" x2="890.1549" y2="414.2745" gradientTransform="matrix(1 0 0 -1 0 895.9394)">
			<stop  offset="0" style="stop-color:#0071BC"/>
			<stop  offset="1" style="stop-color:#00A99D"/>
		</linearGradient>
		<path class="st1" d="M335.1,896.8c-219.6-94.1-321.4-348.4-227.3-568s348.4-321.4,568-227.3c92.6,39.6,168.4,110.3,214.4,199.9
			l-40.9,21.1C751.7,132.6,518.6,57.7,328.7,155.3S64,485.9,161.5,675.8c41.1,80.1,108.9,143.3,191.7,178.7L335.1,896.8z"/>
		
			<linearGradient id="SVGID_3_" gradientUnits="userSpaceOnUse" x1="0" y1="522.6185" x2="789.9649" y2="522.6185" gradientTransform="matrix(1 0 0 -1 0 895.9394)">
			<stop  offset="0" style="stop-color:#0071BC"/>
			<stop  offset="1" style="stop-color:#00A99D"/>
		</linearGradient>
		<path class="st2" d="M56.8,746.6C-72.6,495,26.5,186.2,278.1,56.7C359.3,15,450.2-4.3,541.4,0.8C629.8,6,715.5,33.9,790,81.8
			l-24.9,38.7C624.9,30,447.2,21.4,298.9,97.7C70.1,215.3-20.1,496,97.4,724.9c0.1,0.2,0.2,0.5,0.4,0.7L56.8,746.6z"/>
		<g>
			
				<linearGradient id="SVGID_4_" gradientUnits="userSpaceOnUse" x1="503.1928" y1="755.2683" x2="503.1928" y2="49.8317" gradientTransform="matrix(1 0 0 -1 0 895.9394)">
				<stop  offset="0" style="stop-color:#00A99D"/>
				<stop  offset="1" style="stop-color:#0071BC"/>
			</linearGradient>
			<path class="st3" d="M820.9,339.8C736,164.4,525.1,91.1,349.8,176S101.2,471.8,186,647.1c58.9,121.6,182.1,198.9,317.2,199
				l17.8-0.5v0.1c26.7-0.5,56-8.2,78.3-20.7c29.3-16.5,45.5-40.4,45.5-67.5c0-30.4-13.3-52.9-39.7-67.1
				c-21.3-11.5-48.3-16.2-74.4-20.7l-3.5-0.6c-49.5-8.3-70.2-15.1-70.5-35.2c-0.1-4.9-0.3-19.9,20.4-30.8
				c11.7-6.2,28.7-10,45.4-10.3h1.2c30,0,53,5,68.1,28.3l7.4,11.5l40.8-25.1l-8.5-12.2c-14.2-20.4-31-34-51.5-41.7
				c-20.1-7.5-40.8-8.2-58.3-7.9c-16.6,0.2-33.1,2.9-48.9,7.8c-18.5,5.9-33.5,14.8-44.4,26.4c-14.2,15-21.1,33.8-20.3,55.7
				c0.5,27.2,13.8,47.6,39.5,60.6c20.7,10.5,46.6,15.1,71.7,19.5l0.7,0.1c47.5,8.2,78.5,15.5,76.1,40.3
				c-2.5,26.3-46.4,43.1-76.8,43.6v-0.1c-169,8.8-313.2-121.2-321.9-290.2s121.2-313.2,290.2-321.9S801,308.7,809.7,477.7
				c0,0,0,0,0,0l45.9-2.4C853.3,428.3,841.5,382.2,820.9,339.8z"/>
			
				<linearGradient id="SVGID_5_" gradientUnits="userSpaceOnUse" x1="620.8343" y1="320.313" x2="853.5134" y2="87.6348" gradientTransform="matrix(1 0 0 -1 0 895.9394)">
				<stop  offset="0" style="stop-color:#00A99D"/>
				<stop  offset="1" style="stop-color:#0071BC"/>
			</linearGradient>
			<path class="st4" d="M654.5,841.1l-5-294.1l104.1-1.8c45.6-0.8,84.3,14.1,111.8,43.1c24,25.3,38.1,60.1,39.6,98v0
				c1.7,41.6-12.5,81.4-38.7,109.2c-26.3,27.9-63.6,43-107.6,43.8L654.5,841.1z M698.8,593.6l3.4,198.9l55.6-1
				c29.9-0.5,54.9-10.5,72.3-28.9c17.8-18.8,27.4-46.1,26.4-74.8c-1-25.9-10.3-49.5-26.3-66.5c-18.2-19.3-44.4-29.2-75.7-28.6
				L698.8,593.6z"/>
		</g>
	</g>
	<g>
		<path class="st5" d="M1557.2,466.5c-0.4,72.8-45.7,144-141.2,144s-141.6-70.8-141.6-144c0-80.7,54.1-144.8,142-144.8
			C1510.7,322.1,1557.6,392.9,1557.2,466.5z M1416.4,353.5c-70.8,0-107.4,52.1-107.4,113c0,56.5,34.2,111.4,107.4,111.4
			s106.2-56.5,106.2-111.4C1523,410,1489.2,354.3,1416.4,353.5z"/>
		<path class="st5" d="M1604.1,409.2h31l1.6,37.8c15.5-26.3,44.6-41.4,75.6-41.4c56.5,1.2,97.9,41,97.9,101.4
			c0,62.1-41,102.2-99.8,102.2c-27.8,0-58.9-11.9-74.4-39.8v128.1h-31.8L1604.1,409.2z M1777.6,507.9c0-44.2-29-70.4-69.2-70.4
			c-41,0-68.8,30.2-68.8,70.4s29,70.4,68.8,70.8C1747.7,578.7,1777.6,552,1777.6,507.9L1777.6,507.9z"/>
		<path class="st5" d="M2033.3,573.5c-19.9,23.5-54.1,35-84.7,35c-60.9,0-103.4-40.2-103.4-102.6c0-59.3,42.6-101.8,101.8-101.8
			c60.1,0,105.8,37,98.2,115.4h-167.1c3.6,36.2,33.4,58.9,71.2,58.9c22.3,0,49.3-8.8,62.4-24.7l21.9,19.9L2033.3,573.5z
			 M2014.2,492.4c-1.6-38.2-27.8-58.9-66.4-58.9c-34.2,0-64,20.7-69.6,58.5h136V492.4z"/>
		<path class="st5" d="M2090.6,408h29.8l1.6,31.4c17.1-23.5,41-34.2,67.2-34.2c49.7,0,86.3,33.4,86.3,91.1v108.6h-32.6V496.7
			c0-37.8-22.3-61.3-59.7-61.3c-35.8,0.4-60.5,28.6-60.5,64v105.4h-32.2V408z"/>
		<path class="st5" d="M2537.7,351.6c-35.4,0-73.2,13.9-73.2,47.7c0,30.2,34.6,39,75.6,45.7c55.7,8.8,110.6,19.9,110.6,82.7
			c-0.4,62.5-60.1,82.7-113.4,82.7c-49.3,0-96.3-17.9-117.7-64.4l28.6-16.7c17.9,33,55.3,48.9,89.5,48.9c33.8,0,78.8-10.7,78.8-51.7
			c0.4-34.6-38.6-44.5-80.4-50.9c-53.7-8.4-105.8-20.7-105.8-77.2c-0.8-58.1,58.5-78,106.6-78c41.4,0,80.7,8.4,105.4,50.5
			l-26.3,16.3C2600.9,363.1,2568.7,352,2537.7,351.6z"/>
		<path class="st5" d="M2859.8,605.7l-0.8-35.8c-15.5,27-45.3,39.8-72.4,39.8c-56.5,0-100.6-39-100.6-103
			c0-63.6,44.9-101.8,101-101.4c29.4,0,58.5,13.5,72.8,39l0.4-35.8h31.8v196.5h-31.4L2859.8,605.7z M2788.2,436.3
			c-39,0-70.4,27.8-70.4,71.6s31.4,72,70.4,72c94.7,0,94.7-144,0.4-144L2788.2,436.3z"/>
		<path class="st5" d="M2951.7,408h29.8l1.6,31.4c17.1-23.5,41-34.2,67.2-34.2c49.7,0,86.3,33.4,86.3,91.1v108.6h-32.6V496.7
			c0-37.8-22.3-61.3-59.7-61.3c-35.8,0.4-60.5,28.6-60.5,64v105.4h-32.2V408z"/>
		<path class="st5" d="M3302.5,326.1H3404c94.7,0,140,67.6,140,136.4c0,71.2-42.6,142.4-140,142.4h-101.4V326.1z M3509.4,462.1
			c0-51.7-34.2-102.6-105.4-102.6h-66.8v210.8h66.8C3478,570.3,3509.4,515.4,3509.4,462.1z"/>
		<path class="st5" d="M3629.1,348.8c0,28.2-43,28.2-43-0.4C3586.1,320.1,3629.1,320.1,3629.1,348.8z M3590.9,604.9h32.6V407.6
			h-32.6V604.9z"/>
		<path class="st5" d="M3859,573.5c-19.9,23.5-54.1,35-84.7,35c-60.9,0-103.4-40.2-103.4-102.6c0-59.3,42.6-101.8,101.8-101.8
			c60.1,0,105.8,37,98.2,115.4h-167.1c3.6,36.2,33.4,58.9,71.2,58.9c22.3,0,49.3-8.8,62.4-24.7l21.9,19.9L3859,573.5z M3839.9,492.4
			c-1.6-38.2-27.8-58.9-66.4-58.9c-34.2,0-64,20.7-69.6,58.5h136L3839.9,492.4z"/>
		<path class="st5" d="M4007.8,692c33.8,0,69.2-12.3,69.2-46.5c0-31.8-32.2-47.3-68.8-47.3c-61.7,0-103.8-35.8-103.8-97.1
			c0-64.8,53.3-97.5,103.8-97.5c17.9,0,41.4,4.8,55.7,14.7l21.1-25.5l23.1,18.3l-22.3,26.3c15.5,17.5,25.5,35,25.5,63.6
			c0,33.4-17.1,67.6-55.3,80c38.2,11.1,54.1,35.8,54.1,64c0,50.9-50.5,76.8-102.6,76.8c-59.3,0-101.8-31-100.6-83.9h31.4
			C3938.2,676.1,3972,691.7,4007.8,692z M4008.6,569.5c41.8,0,70.8-30.2,70.8-68c0-44.9-34.2-68-71.2-68c-35,0-71.6,21.9-71.6,67.6
			C3937.4,546.1,3969.2,569.5,4008.6,569.5L4008.6,569.5z"/>
		<path class="st5" d="M4248.4,404.1c60.1,0,102.2,42.2,102.2,103c0,59.7-43,101.4-102.2,101.4c-58.9,0-101.8-41.8-101.8-101.4
			C4146.6,446.2,4189.9,404.1,4248.4,404.1z M4248.8,433.9c-40.2,0-69.6,29.4-69.6,73.2c0,41.4,29,70.8,69.2,70.8
			c40.6,0,69.6-29.4,70-70.8C4318.4,463.3,4288.2,433.9,4248.8,433.9L4248.8,433.9z"/>
	</g>
</g>
</svg>
