<?xml version="1.0" encoding="UTF-8" standalone="no"?>
<!-- Generator: Adobe Illustrator 24.2.0, SVG Export Plug-In . SVG Version: 6.00 Build 0)  -->

<svg
   version="1.1"
   id="_x33_634fd13-12d5-42b3-a446-449754549e72"
   x="0px"
   y="0px"
   viewBox="0 0 830.7 201.7"
   style="enable-background:new 0 0 830.7 201.7;"
   xml:space="preserve"
   sodipodi:docname="repus-2.svg"
   inkscape:version="1.4.3 (0d15f75, 2025-12-25)"
   xmlns:inkscape="http://www.inkscape.org/namespaces/inkscape"
   xmlns:sodipodi="http://sodipodi.sourceforge.net/DTD/sodipodi-0.dtd"
   xmlns="http://www.w3.org/2000/svg"
   xmlns:svg="http://www.w3.org/2000/svg"><defs
   id="defs10" /><sodipodi:namedview
   id="namedview10"
   pagecolor="#ffffff"
   bordercolor="#666666"
   borderopacity="1.0"
   inkscape:showpageshadow="2"
   inkscape:pageopacity="0.0"
   inkscape:pagecheckerboard="0"
   inkscape:deskcolor="#d1d1d1"
   inkscape:zoom="1.0707837"
   inkscape:cx="428.65801"
   inkscape:cy="33.153288"
   inkscape:window-width="1920"
   inkscape:window-height="1001"
   inkscape:window-x="1271"
   inkscape:window-y="-9"
   inkscape:window-maximized="1"
   inkscape:current-layer="layer2"
   showguides="true" />
<style
   type="text/css"
   id="style1">
	.st0{fill:#FCEE0D;}
</style>










<g
   id="g4"><path
     d="m 816.7,0 h -190 c -6.6,0 -13.8,5.62658 -13.8,11.815818 V 130.53666 c 0,6.18923 7.2,8.53364 13.8,8.53364 h 45.8 v 1.87553 c 0,28.508 -11.5,47.73215 -11.5,47.73215 0,0 0,0.37511 0,0.37511 l 74.6,-49.98279 h 81 c 6.6,0 14.1,-2.34441 14.1,-8.53364 V 11.815818 C 830.7,5.62658 823.3,0 816.7,0"
     id="path13"
     style="display:inline;fill:#feee03;stroke-width:0.968382;fill-opacity:1" /><path
     d="m 732.9,53.7 v 40 c 0,24.8 -19.7,33.1 -41.5,33.1 -23.3,0 -40.6,-9.7 -40.6,-35.2 V 53.7 h -9.5 V 28.4 H 695 v 25.2 h -6.3 v 40.9 c 0,5.9 2.8,10.1 9.4,10.1 7.1,0 9.5,-4.9 9.5,-11 V 53.7 h -9.5 V 28.4 h 44.2 v 25.2 h -9.4 z"
     id="path12"
     style="display:inline;fill:#464646;fill-opacity:1;stroke:none;stroke-width:0.474039" /><path
     d="m 771.1,126.4 c -8.5,0 -12.9,-0.8 -19.6,-6 -0.1,1.9 -0.4,2.8 -0.5,5.9 H 736 V 101 h 17.8 c 3.2,3.2 5.8,9.9 13,9.9 2.2,0 5.5,-0.1 5.5,-3 0,-2.6 -5.9,-3.7 -7.8,-4.2 -15,-4.1 -29,-11.1 -29,-28.6 0,-14 9.6,-22.3 23.3,-22.3 7.3,0 11,1.9 15.3,7.7 0.2,-2.3 0.2,-4.6 0.1,-6.8 h 4 c 4.5,0 9,-0.1 13.5,0 -0.5,7.7 -0.1,15.3 -0.4,22.9 l -18.6,-0.3 c -2.2,-4 -3.7,-8.4 -9.2,-8.4 -1.8,0 -4,0.4 -4,2.6 0,8.2 37.9,2.9 37.9,31.8 0.1,16.8 -10.3,24 -26.3,24.1"
     id="path1"
     style="display:inline;fill:#464646;fill-opacity:1;stroke:none;stroke-width:0.474039" /></g><g
   id="g3"><path
     d="m 41.202099,81.897734 c 0.70252,-2.33337 1.0036,-4.66674 0.90324,-7.093445 0,-1.773361 -0.10036,-4.66674 -2.70972,-4.66674 -4.21512,0 -3.91404,8.400132 -3.91404,11.013506 v 19.040295 h 6.32268 v 18.66696 H 1.2588192 v -18.66696 h 4.61656 V 71.257566 h -4.61656 v -18.66696 c 10.5377998,0 21.0755998,-0.09333 31.6133998,-0.09333 h 2.0072 v 9.800154 c 4.31548,-7.466784 8.0288,-10.920172 17.563,-10.920172 12.0432,0 16.0576,8.493467 16.0576,18.293621 -0.10036,4.293401 -0.70252,8.586801 -1.60576,12.880202 -8.5306,-0.09334 -17.0612,-0.280004 -25.69216,-0.653343"
     id="path2"
     style="fill:#464646;fill-opacity:1;stroke:none;stroke-width:0.474039" /><path
     d="m 98.407299,76.57765 v 2.053366 h 7.225921 c -0.10036,-2.240036 0.70252,-12.413529 -3.21152,-12.413529 -4.415841,0 -4.014401,7.746789 -4.014401,10.360163 m 17.663361,12.880202 c -5.82088,0 -12.0432,-0.466674 -17.864081,0 v 1.120018 c 0,4.293401 -0.80288,13.72022 5.921241,13.72022 5.72052,0 5.72052,-6.160101 5.92124,-10.080163 h 22.48064 l -0.10036,1.493357 C 130.92394,112.32488 119.4829,119.885 102.22098,119.885 c -22.681361,0 -34.122401,-13.62688 -34.122401,-33.97387 0,-19.506973 12.44464,-34.81388 34.523841,-34.81388 21.47704,0 30.81052,14.560228 30.81052,32.947184 0,1.773361 0,3.640057 -0.30108,5.413418 z"
     id="path3"
     style="fill:#464646;fill-opacity:1;stroke:none;stroke-width:0.474039" /><path
     d="m 171.36902,69.204201 c -3.91404,0 -3.61296,11.946854 -3.61296,14.186889 v 9.33348 c 0,2.426705 -0.40144,10.17349 3.61296,10.17349 1.10396,0 2.20792,-0.65334 2.60936,-1.58669 0.80288,-1.493355 0.80288,-11.666848 0.80288,-13.440209 v -3.640057 c 0,-2.426705 0.90324,-15.026903 -3.41224,-15.026903 m 9.63456,50.120789 c -5.92124,0 -9.0324,-1.49336 -12.94644,-5.69342 v 8.68013 h 7.32628 v 18.66696 H 132.63006 V 122.3117 h 5.82088 V 71.350901 H 134.0351 V 52.590606 h 33.82132 v 7.466784 c 2.40864,-5.506753 9.33348,-8.213462 15.25472,-8.213462 20.17236,0 22.27992,19.973647 22.27992,34.347206 -0.10036,15.213576 -4.11476,33.133856 -24.38748,33.133856"
     id="path4"
     style="fill:#464646;fill-opacity:1;stroke:none;stroke-width:0.474039" /><path
     d="m 247.04046,81.897734 c 0.70252,-2.33337 1.0036,-4.66674 0.90324,-7.093445 0,-1.773361 -0.10036,-4.66674 -2.70972,-4.66674 -4.21512,0 -3.91404,8.400132 -3.91404,11.013506 v 19.040295 h 6.32268 v 18.66696 h -40.54544 v -18.66696 h 4.61656 V 71.257566 h -4.61656 v -18.66696 c 10.5378,0 21.0756,-0.09333 31.6134,-0.09333 h 2.0072 v 9.800154 c 4.31548,-7.466784 8.0288,-10.920172 17.563,-10.920172 11.94284,0 15.95724,8.586802 15.95724,18.386956 -0.10036,4.2934 -0.70252,8.586801 -1.60576,12.880202 -8.43024,-0.18667 -16.96084,-0.373339 -25.5918,-0.746678"
     id="path5"
     style="fill:#464646;fill-opacity:1;stroke:none;stroke-width:0.474039" /><path
     d="m 304.24566,76.57765 v 2.053366 h 7.12556 c -0.10036,-2.240036 0.70252,-12.413529 -3.21152,-12.413529 -4.31548,0 -3.91404,7.746789 -3.91404,10.360163 m 17.66336,12.880202 c -5.82088,0 -12.0432,-0.466674 -17.86408,0 v 1.120018 c 0,4.293401 -0.80288,13.72022 5.92124,13.72022 5.72052,0 5.72052,-6.160101 5.92124,-10.080163 h 22.581 l -0.10036,1.493357 C 336.86266,112.32488 325.42162,119.885 308.1597,119.885 c -22.68136,0 -34.1224,-13.62688 -34.1224,-33.97387 0,-19.506973 12.44464,-34.81388 34.52384,-34.81388 21.47704,0 30.81052,14.560228 30.81052,32.947184 0,1.773361 0,3.640057 -0.30108,5.413418 z"
     id="path6"
     style="fill:#464646;fill-opacity:1;stroke:none;stroke-width:0.474039" /><path
     d="m 376.80594,119.51166 c -8.43024,0 -12.74572,-1.02668 -19.36948,-5.78676 -0.10036,1.77336 -0.40144,3.36005 -0.5018,5.13341 H 341.07778 V 96.364628 h 18.66696 c 3.11116,5.040082 5.72052,9.053472 12.84608,9.053472 2.20792,0 5.41944,-0.0933 5.41944,-2.80004 0,-2.42671 -5.82088,-3.360054 -7.72772,-3.920062 -14.85328,-3.826727 -28.70296,-10.173494 -28.70296,-26.320414 0,-12.880202 9.43384,-20.533656 22.98244,-20.533656 7.12556,0 10.83888,1.586692 15.15436,6.906775 0.20072,-2.1467 0.20072,-4.293401 0.10036,-6.440101 h 3.91404 c 4.41584,0 8.93204,0 13.34788,0.09333 -0.5018,7.00011 -0.10036,14.093555 -0.40144,21.093665 l -18.36588,-0.280005 c -2.20792,-3.640057 -3.61296,-7.653453 -9.0324,-7.653453 -1.80648,0 -3.91404,0.373339 -3.91404,2.426704 0,7.560119 37.43428,2.613375 37.43428,29.213793 0.10036,15.586914 -10.13636,22.307024 -25.99324,22.307024"
     id="path7"
     style="fill:#464646;fill-opacity:1;stroke:none;stroke-width:0.474039" /><path
     d="m 433.71006,76.57765 v 2.053366 h 7.12556 c -0.10036,-2.240036 0.70252,-12.413529 -3.21152,-12.413529 -4.31548,0 -3.91404,7.746789 -3.91404,10.360163 m 17.66336,12.880202 c -5.82088,0 -12.0432,-0.466674 -17.86408,0 v 1.120018 c 0,4.293401 -0.80288,13.72022 5.92124,13.72022 5.72052,0 5.72052,-6.160101 5.92124,-10.080163 h 22.581 l -0.10036,1.493357 C 466.32706,112.32488 454.88602,119.885 437.6241,119.885 c -22.68136,0 -34.1224,-13.62688 -34.1224,-33.97387 0,-19.506973 12.44464,-34.81388 34.52384,-34.81388 21.47704,0 30.81052,14.560228 30.81052,32.947184 0,1.773361 0,3.640057 -0.30108,5.413418 z"
     id="path8"
     style="fill:#464646;fill-opacity:1;stroke:none;stroke-width:0.474039" /><path
     d="m 508.17718,118.85831 v -18.57362 h 2.70972 V 73.124262 c 0,-1.866696 -0.70252,-3.173383 -2.81008,-3.173383 -3.91404,0 -3.91404,9.053476 -3.91404,11.480181 v 18.85363 h 2.40864 v 18.66696 h -36.6314 v -18.66696 h 4.71692 V 71.164232 h -4.71692 v -18.66696 h 33.52024 v 9.33348 c 0.5018,-0.746679 1.0036,-1.493357 1.5054,-2.240036 3.61296,-6.160096 10.036,-8.213462 17.16156,-8.213462 20.87488,0 18.36588,15.120238 18.36588,29.587132 v 19.320304 h 4.61656 v 18.66696 z"
     id="path9"
     style="fill:#464646;fill-opacity:1;stroke:none;stroke-width:0.474039" /><path
     d="m 559.46114,34.110316 c 0,-0.560009 0,-1.120018 0.10036,-1.680026 7.22592,-0.09333 14.35148,-0.280005 21.47704,-0.653344 v 1.213352 c -0.10036,6.533436 0.10036,12.973538 0.10036,19.506974 h 15.5558 v 18.853629 h -15.5558 v 27.720436 c 0,1.400023 -0.10036,6.440103 2.20792,6.440103 2.30828,0 2.30828,-1.77336 2.30828,-3.26672 0,-2.24004 -0.30108,-4.386736 -0.40144,-6.533436 l 14.25112,-0.280004 c 0.5018,1.96003 0.70252,3.920061 0.80288,5.88009 0,13.72022 -9.63456,18.10695 -23.0828,18.10695 -18.36588,0 -25.69216,-9.33348 -25.69216,-25.667067 V 71.350901 h -7.32628 v -18.66696 c 12.24392,-1.026683 14.85328,-8.213462 15.25472,-18.573625"
     id="path10"
     style="fill:#464646;fill-opacity:1;stroke:none;stroke-width:0.474039" /></g>
<g
   inkscape:groupmode="layer"
   id="layer2"
   inkscape:label="Layer 1"
   style="display:inline"><g
     id="g5"><g
       id="g2"
       transform="matrix(0.49254574,0,0,0.45602599,165.43576,50.431624)"
       style="enable-background:new 0 0 830.7 201.7;display:inline;opacity:1;fill:#464646;stroke:none;fill-opacity:1"><path
         fill="#494949"
         opacity="1"
         stroke="none"
         d="m 571.01735,173.00003 c 6.15222,0 11.80493,0 18.04895,0 0,9.17038 0,18.15064 0,27.4314 -12.8111,0 -25.53308,0 -38.59272,0 0,-9.05444 0,-17.93836 0,-27.43143 6.83704,0 13.44068,0 20.54377,3e-5 z"
         id="path21-1"
         style="fill:#464646;stroke:none;fill-opacity:1" /></g><path
       fill="#464646"
       opacity="0.593"
       stroke="none"
       d="m 403.62877,187.07812 c -6.58587,4.24192 -16.41701,1.93181 -19.68121,-5.025 -1.75084,-3.73141 -2.47346,-7.98004 -3.01615,-12.06861 -0.69165,-5.21091 -0.37506,-10.46 1.54236,-15.51532 2.61139,-6.8849 8.21314,-10.66574 16.01589,-10.3444 2.32264,0.0956 4.60033,1.12723 6.97059,1.74886 0,-0.91714 0,-2.28672 0,-3.89286 -1.84657,0 -3.69274,0 -5.72296,0 0,-4.28242 0,-8.33625 0,-12.53793 8.67108,0 17.22419,0 26.01832,0 0,15.51777 0,30.89845 0,46.37574 1.25733,0.10316 2.2871,0.18764 3.44766,0.28286 0,4.10488 0,8.0999 0,12.27496 -7.53606,0 -15.0978,0 -22.86628,0 0,-1.21039 0,-2.38191 0,-3.95372 -1.05676,1.05771 -1.80805,1.80964 -2.70822,2.65542 m -2.12242,-21.11125 c 0.16453,3.24671 0.23792,6.50138 0.56657,9.73378 0.07,0.68876 1.06845,1.29651 1.63916,1.94159 0.64767,-0.58753 1.38414,-1.1153 1.90918,-1.78525 0.30769,-0.39263 0.38276,-1.01143 0.38471,-1.52907 0.0192,-5.0692 0.0298,-10.13882 -0.0363,-15.20746 -0.0105,-0.8056 -0.28051,-1.66985 -0.67722,-2.39048 -0.33074,-0.60079 -1.02318,-1.03078 -1.55544,-1.53639 -0.51584,0.57955 -1.40167,1.11749 -1.48401,1.74577 -0.37289,2.84527 -0.51888,5.71605 -0.74663,9.02751 z"
       id="path12-9"
       style="stroke-width:0.474039;opacity:1;fill:#464646;stroke:none;fill-opacity:1" /><path
       fill="#464646"
       opacity="0.593"
       stroke="none"
       d="m 546.05585,148.53926 c 2.32265,3.2135 3.1884,6.70732 2.77402,10.58308 -0.58618,5.48272 -4.08241,8.67192 -9.51071,9.65025 -4.36642,0.78692 -8.94148,0.58573 -13.42508,0.80235 -0.40019,0.0193 -0.8718,-0.26476 -1.20171,-0.147 -0.94855,0.33862 -1.84148,0.81112 -2.75624,1.231 0.75798,0.48948 1.50143,1.37815 2.2762,1.40231 4.33421,0.13505 8.67679,0.0159 13.01489,0.0787 2.04318,0.0295 4.10606,0.13764 6.11983,0.43995 8.75855,1.3149 13.30854,7.2773 11.93586,15.37846 -1.13724,6.71188 -5.74983,10.48438 -12.42407,12.05511 -8.93562,2.10292 -18.01009,2.06464 -27.02382,0.18588 -1.33057,-0.27734 -2.61518,-0.8925 -3.81768,-1.52092 -4.01016,-2.09567 -4.5065,-7.33064 -0.87796,-9.97192 1.52413,-1.10941 3.34178,-1.87278 5.11169,-2.8403 -4.7016,-1.23451 -8.30344,-3.43373 -8.3292,-8.6596 -0.0281,-5.74254 4.5628,-7.76308 9.36305,-10.0656 -1.07389,-0.93392 -2.20527,-1.68522 -3.01906,-2.66324 -5.41637,-6.50887 -2.17532,-16.61282 6.41625,-19.5999 5.9896,-2.08243 12.17032,-2.21099 18.34911,-0.53069 0.62361,0.16959 1.24156,0.35693 1.87083,0.53852 1.36588,-6.11029 5.45849,-8.75017 11.28497,-7.35122 3.82594,0.9186 5.75401,5.63129 4.176,10.4085 -3.23445,0 -6.50644,0 -10.07188,-0.18229 -0.44309,-1.44989 0.52654,-3.00468 -1.36844,-3.92541 -1.63899,2.0669 -0.72364,3.48612 1.13315,4.70403 m -10.52678,44.20541 c 2.66053,-1.6072 3.0031,-3.83235 0.80299,-5.21594 -2.42697,-1.52627 -6.94671,-1.43716 -9.2374,0.1821 -2.13321,1.5079 -1.91413,4.37355 0.64356,4.93919 2.36324,0.52263 4.94635,0.19272 7.79085,0.0947 m -3.59933,-36.8145 c -0.0212,-1.43818 0.0572,-2.8868 -0.11659,-4.30896 -0.0616,-0.50403 -0.73704,-0.94369 -1.13226,-1.41274 -0.42832,0.45688 -1.21122,0.90271 -1.22831,1.37243 -0.12373,3.40343 -0.14062,6.81275 -0.0542,10.21722 0.0118,0.45954 0.79014,0.90237 1.21348,1.35292 0.42537,-0.43965 1.17783,-0.85498 1.21846,-1.32324 0.15653,-1.80631 0.0857,-3.62955 0.0994,-5.89763 z"
       id="path13-5"
       style="stroke-width:0.474039;opacity:1;fill:#464646;stroke:none;fill-opacity:1" /><path
       fill="#464646"
       opacity="0.593"
       stroke="none"
       d="m 357.07754,183.96611 c 3e-5,1.58356 3e-5,2.9414 3e-5,4.43868 -8.23815,0 -16.31615,0 -24.70918,0 0,-3.80022 -1.20106,-8.1369 0.33793,-11.34626 1.53804,-3.20741 1.08379,-6.0827 1.30472,-9.09434 0.23837,-3.24942 0.10032,-6.53483 -0.10822,-9.79163 -0.0536,-0.8369 -0.99017,-1.62528 -1.52111,-2.43595 -0.7458,0.68272 -1.81786,1.24923 -2.16081,2.07541 -0.51395,1.23802 -0.66914,2.65472 -0.70641,4.00187 -0.10724,3.87283 -0.10588,7.74902 -0.0864,11.62363 0.005,1.08185 -0.62434,2.53774 1.47473,2.75394 0.18179,0.0187 0.38949,0.76689 0.39294,1.17762 0.0306,3.63369 0.0178,7.26772 0.0178,11.03898 -8.31566,0 -16.47549,0 -24.81814,0 0,-4.04728 0,-8.09832 0,-12.27074 0.97656,-0.11117 1.92612,-0.21928 2.99598,-0.34108 0,-6.33678 0,-12.61191 0,-19.05785 -0.95701,-0.0742 -1.90389,-0.14762 -3.01104,-0.23347 0,-4.0858 0,-8.14183 0,-12.34855 7.52251,0 14.93887,0 22.50136,0 0,1.75179 0,3.39208 0,5.75612 2.83562,-4.71474 6.7584,-6.50354 11.79497,-6.60906 8.45784,-0.17722 13.07399,3.79035 13.16181,11.62276 0.069,6.15391 0.0167,12.30901 0.0183,18.46356 1.8e-4,0.75066 3e-5,1.50132 3e-5,2.38901 1.02351,0.10864 1.87942,0.1995 3.12067,0.33125 0,2.53789 0,5.08413 0,7.8561 z"
       id="path14"
       style="stroke-width:0.474039;opacity:1;fill:#464646;stroke:none;fill-opacity:1" /><path
       fill="#454545"
       opacity="0.593"
       stroke="none"
       d="m 274.46717,185.09687 c -1.89058,2.35694 -4.46475,3.40947 -7.26322,3.72278 -5.37664,0.60193 -10.7561,0.86942 -14.37326,-4.05851 -5.46794,-7.44938 -1.7596,-18.40079 7.40568,-21.24728 2.8984,-0.90016 6.06309,-1.12455 9.13025,-1.47549 1.76144,-0.20153 3.57177,-0.0365 5.62403,-0.0365 -0.10368,-2.08878 -0.0628,-4.05549 -0.3664,-5.97545 -0.11761,-0.74377 -1.01501,-1.38173 -1.55722,-2.06789 -0.59094,0.70448 -1.52634,1.34508 -1.6955,2.12774 -0.28313,1.31015 -0.0774,2.71091 -0.0774,4.35191 -5.67215,0 -11.25457,0 -16.86248,0 -2.11629,-7.81973 2.11334,-14.17063 11.29023,-16.47319 5.9646,-1.49654 12.00135,-1.4405 17.95441,0.2303 6.89973,1.93647 10.49711,6.42016 10.53196,13.14578 0.0299,5.77464 -0.0322,11.54969 -0.008,17.32439 0.005,1.29872 0.19898,2.59677 0.30595,3.89513 0.36845,0.0118 0.73686,0.0235 1.10531,0.0353 0.17502,-1.73985 0.35005,-3.47971 0.54368,-5.40465 2.18032,0 4.51096,0 6.86005,0 2.06939,8.92939 -2.22662,14.73898 -9.63735,15.57465 -3.14296,0.35443 -6.38849,0.25463 -9.55579,0.0102 -3.53028,-0.27242 -6.2266,-2.11761 -8.24061,-4.95265 -0.40414,0.46581 -0.70103,0.808 -1.11416,1.2735 m 0.63348,-12.47135 c 0,-1.79531 0,-3.59064 0,-5.38621 -1.883,-0.36278 -3.0445,0.45517 -3.2531,1.81494 -0.38633,2.5184 -0.48362,5.08646 -0.48473,7.63393 -2.1e-4,0.49593 0.98527,0.99223 1.51609,1.48835 0.47333,-0.45529 1.18984,-0.8407 1.37061,-1.3801 0.4063,-1.21276 0.5469,-2.50189 0.85113,-4.17091 z"
       id="path15"
       style="stroke-width:0.474039;opacity:1;fill:#464646;stroke:none;fill-opacity:1" /><path
       fill="#454545"
       opacity="0.593"
       stroke="none"
       d="m 573.02796,189.23079 c -11.94232,-1.35751 -18.12869,-9.95473 -18.97518,-20.32271 -0.48467,-5.93566 0.45634,-11.68889 3.99336,-16.83979 4.9363,-7.18861 12.24878,-9.88431 21.09589,-8.92169 9.79437,1.06568 16.22658,6.62253 18.51962,15.5253 1.43509,5.57148 1.39046,11.16363 -0.4262,16.65124 -3.2802,9.90889 -11.75263,14.78499 -24.20749,13.90765 m 4.09882,-35.09688 c -2.33078,-0.52108 -2.91188,0.77834 -2.94311,2.51174 -0.10674,5.90971 -0.24677,11.82059 -0.19933,17.72981 0.0123,1.53632 -0.26972,3.92294 2.17537,3.94215 2.53262,0.0199 2.40003,-2.39456 2.42732,-4.02215 0.0954,-5.686 0.033,-11.3759 -0.0964,-17.06185 -0.0222,-0.9801 -0.66597,-1.94805 -1.36386,-3.0997 z"
       id="path16"
       style="stroke-width:0.474039;opacity:1;fill:#464646;stroke:none;fill-opacity:1" /><path
       fill="#464646"
       opacity="0.593"
       stroke="none"
       d="m 482.65053,175.53168 c 0.6476,2.00164 1.6716,3.47782 4.02129,3.05753 3.84344,-0.68753 2.87337,-3.87461 3.58731,-6.38451 4.89729,0 9.84717,0 14.79815,0 0.84353,6.17983 -3.37094,12.89545 -9.81954,15.29675 -6.56534,2.44475 -13.31386,2.55149 -19.92659,0.2913 -8.39667,-2.86989 -12.0821,-9.07021 -13.07295,-16.93368 -1.09636,-8.70053 0.31897,-16.78893 7.79469,-22.87973 6.8289,-5.56382 14.94132,-6.37674 23.27751,-3.70736 8.19055,2.6228 11.33782,8.99353 12.38029,16.39494 0.36508,2.59247 0.0583,5.26611 0.0583,8.15792 -7.75548,0 -15.50076,0 -23.70554,0 0.20593,2.3617 0.38734,4.44172 0.60706,6.70684 m -0.31222,-15.6345 c 0.37817,1.88179 1.2125,2.12075 4.91393,1.24862 -0.24391,-2.10696 -0.39946,-4.27294 -0.80748,-6.39731 -0.10176,-0.52973 -1.01534,-1.28275 -1.56073,-1.28642 -0.59909,-0.004 -1.58575,0.64658 -1.73465,1.17396 -0.44595,1.5791 -0.56529,3.23732 -0.81107,5.26115 z"
       id="path17"
       style="stroke-width:0.474039;opacity:1;fill:#464646;stroke:none;fill-opacity:1" /><path
       fill="#464646"
       opacity="0.593"
       stroke="none"
       d="m 235.83034,159.76068 c 2.66977,1.70305 5.84447,2.99875 7.90671,5.19191 4.63715,4.9315 4.30833,10.84215 1.7963,16.49509 -2.45305,5.52023 -7.9417,7.10034 -13.8095,7.50703 -5.2881,0.36652 -10.49904,0.0419 -15.05471,-3.63873 -0.27306,1.24852 -0.46078,2.1069 -0.67867,3.10311 -3.41742,0 -6.88884,0 -10.51224,0 0,-4.96998 -0.002,-9.86866 0.0166,-14.76728 2.8e-4,-0.0745 0.25044,-0.14826 0.68193,-0.23491 0.56402,-0.0403 0.83006,-0.0681 1.09611,-0.0959 3.12206,0.0227 6.24414,0.0454 9.7684,0.078 1.02797,0.65294 1.75379,1.23493 2.26167,1.94978 1.87034,2.63261 4.24186,4.46483 7.85184,4.02217 1.05628,-0.12952 2.02607,-0.8638 3.03548,-1.3209 -0.80595,-0.74742 -1.47121,-1.84068 -2.44319,-2.18001 -3.49216,-1.21908 -7.08798,-2.18346 -10.64465,-3.2441 -5.48226,-2.54323 -10.01331,-5.95432 -11.06332,-11.91233 -2.27655,-12.9177 8.00277,-18.93885 19.61071,-16.67482 1.07216,0.20911 2.10078,0.82921 3.02009,1.42885 0.90194,0.58831 1.63854,1.39409 2.61813,2.25403 0.12076,-1.30075 0.22183,-2.38953 0.33315,-3.58849 3.87414,0 7.60593,0 11.48154,0 0,4.27514 0.0554,8.42605 -0.0727,12.57212 -0.0153,0.49694 -0.94598,1.19165 -1.59728,1.39352 -0.81558,0.25276 -1.78098,0.0907 -3.05196,0.0641 -0.61214,-0.0323 -0.85399,-0.021 -1.09585,-0.01 -0.2116,-0.0255 -0.42322,-0.0511 -1.01409,-0.0942 -2.19139,-0.0572 -4.00351,-0.0968 -5.90178,-0.26853 -0.55853,-0.92442 -0.99958,-1.73457 -1.50962,-2.50555 -1.18263,-1.78776 -2.92675,-2.62939 -5.16653,-2.29242 -0.61181,0.092 -1.54838,0.61581 -1.60847,1.03166 -0.0886,0.61278 0.31472,1.7437 0.7877,1.8925 2.4933,0.78429 5.07424,1.32952 7.63912,2.1236 1.78259,0.68401 3.55081,1.20214 5.31904,1.72028 z"
       id="path18"
       style="stroke-width:0.474039;opacity:1;fill:#464646;stroke:none;fill-opacity:1" /><path
       fill="#454545"
       opacity="0.593"
       stroke="none"
       d="m 432.34281,155.13072 c 0.008,-3.76943 0.008,-7.32122 0.008,-10.9896 7.80377,0 15.39696,0 23.33812,0 0,10.54928 0,21.05763 0,31.66572 1.20217,0.0933 2.0708,0.16069 3.10919,0.24127 0,4.12144 0,8.17135 0,12.3703 -8.69933,0 -17.42717,0 -26.35613,0 0,-4.03459 0,-8.08455 0,-12.29363 0.97319,-0.0963 1.99812,-0.19768 3.14401,-0.31105 0,-6.33017 0,-12.60519 0,-18.8444 -0.7604,-1.13955 -3.28296,0.86428 -3.24348,-1.83861 z"
       id="path19"
       style="stroke-width:0.474039;opacity:1;fill:#464646;stroke:none;fill-opacity:1" /><path
       fill="#efefef"
       opacity="0.593"
       stroke="none"
       d="m 207.23608,173.18496 c -0.22923,0.16386 -0.49527,0.19164 -0.89022,0.18097 0.19855,-0.13131 0.52598,-0.22417 0.89022,-0.18097 z"
       id="path52"
       style="stroke-width:0.474039;fill:#464646;fill-opacity:1" /></g></g></svg>
