<?xml version="1.0" encoding="utf-8"?>
<!-- Generator: Adobe Illustrator 24.2.0, SVG Export Plug-In . SVG Version: 6.00 Build 0)  -->
<svg version="1.1" id="_x33_634fd13-12d5-42b3-a446-449754549e72"
	 xmlns="http://www.w3.org/2000/svg" xmlns:xlink="http://www.w3.org/1999/xlink" x="0px" y="0px" viewBox="0 0 830.7 201.7"
	 style="enable-background:new 0 0 830.7 201.7;" xml:space="preserve">
<style type="text/css">
	.st0{fill:#FCEE0D;}
</style>
<rect x="629" y="21" width="176" height="112"/>
<path class="st0" d="M771.1,126.4c-8.5,0-12.9-0.8-19.6-6c-0.1,1.9-0.4,2.8-0.5,5.9h-15V101h17.8c3.2,3.2,5.8,9.9,13,9.9
	c2.2,0,5.5-0.1,5.5-3c0-2.6-5.9-3.7-7.8-4.2c-15-4.1-29-11.1-29-28.6c0-14,9.6-22.3,23.3-22.3c7.3,0,11,1.9,15.3,7.7
	c0.2-2.3,0.2-4.6,0.1-6.8h4c4.5,0,9-0.1,13.5,0c-0.5,7.7-0.1,15.3-0.4,22.9l-18.6-0.3c-2.2-4-3.7-8.4-9.2-8.4c-1.8,0-4,0.4-4,2.6
	c0,8.2,37.9,2.9,37.9,31.8C797.5,119.1,787.1,126.3,771.1,126.4 M732.9,53.7v40c0,24.8-19.7,33.1-41.5,33.1
	c-23.3,0-40.6-9.7-40.6-35.2V53.7h-9.5V28.4H695v25.2h-6.3v40.9c0,5.9,2.8,10.1,9.4,10.1c7.1,0,9.5-4.9,9.5-11V53.7h-9.5V28.4h44.2
	v25.2H732.9z M816.7,0H626.7c-6.6,0-13.8,6-13.8,12.6v126.6c0,6.6,7.2,9.1,13.8,9.1h45.8v2c0,30.4-11.5,50.9-11.5,50.9s0,0.4,0,0.4
	l74.6-53.3h81c6.6,0,14.1-2.5,14.1-9.1V12.6C830.7,6,823.3,0,816.7,0"/>
<path d="M39.8,85.9c0.7-2.5,1-5,0.9-7.6c0-1.9-0.1-5-2.7-5c-4.2,0-3.9,9-3.9,11.8v20.4h6.3v20H0v-20h4.6V74.5H0v-20
	c10.5,0,21-0.1,31.5-0.1h2v10.5c4.3-8,8-11.7,17.5-11.7C63,53.2,67,62.3,67,72.8c-0.1,4.6-0.7,9.2-1.6,13.8
	C56.9,86.5,48.4,86.3,39.8,85.9"/>
<path d="M96.8,80.2v2.2h7.2c-0.1-2.4,0.7-13.3-3.2-13.3C96.4,69.1,96.8,77.4,96.8,80.2 M114.4,94c-5.8,0-12-0.5-17.8,0v1.2
	c0,4.6-0.8,14.7,5.9,14.7c5.7,0,5.7-6.6,5.9-10.8h22.4l-0.1,1.6c-1.5,17.8-12.9,25.9-30.1,25.9c-22.6,0-34-14.6-34-36.4
	c0-20.9,12.4-37.3,34.4-37.3c21.4,0,30.7,15.6,30.7,35.3c0,1.9,0,3.9-0.3,5.8L114.4,94z"/>
<path d="M169.5,72.3c-3.9,0-3.6,12.8-3.6,15.2v10c0,2.6-0.4,10.9,3.6,10.9c1.1,0,2.2-0.7,2.6-1.7c0.8-1.6,0.8-12.5,0.8-14.4v-3.9
	C172.9,85.8,173.8,72.3,169.5,72.3 M179.1,126c-5.9,0-9-1.6-12.9-6.1v9.3h7.3v20h-42.6v-20h5.8V74.6h-4.4V54.5h33.7v8
	c2.4-5.9,9.3-8.8,15.2-8.8c20.1,0,22.2,21.4,22.2,36.8C203.3,106.8,199.3,126,179.1,126"/>
<path d="M244.9,85.9c0.7-2.5,1-5,0.9-7.6c0-1.9-0.1-5-2.7-5c-4.2,0-3.9,9-3.9,11.8v20.4h6.3v20h-40.4v-20h4.6V74.5h-4.6v-20
	c10.5,0,21-0.1,31.5-0.1h2v10.5c4.3-8,8-11.7,17.5-11.7c11.9,0,15.9,9.2,15.9,19.7c-0.1,4.6-0.7,9.2-1.6,13.8
	C262,86.5,253.5,86.3,244.9,85.9"/>
<path d="M301.9,80.2v2.2h7.1c-0.1-2.4,0.7-13.3-3.2-13.3C301.5,69.1,301.9,77.4,301.9,80.2 M319.5,94c-5.8,0-12-0.5-17.8,0v1.2
	c0,4.6-0.8,14.7,5.9,14.7c5.7,0,5.7-6.6,5.9-10.8H336l-0.1,1.6c-1.5,17.8-12.9,25.9-30.1,25.9c-22.6,0-34-14.6-34-36.4
	c0-20.9,12.4-37.3,34.4-37.3c21.4,0,30.7,15.6,30.7,35.3c0,1.9,0,3.9-0.3,5.8L319.5,94z"/>
<path d="M374.2,126.2c-8.4,0-12.7-1.1-19.3-6.2c-0.1,1.9-0.4,3.6-0.5,5.5h-15.8v-24.1h18.6c3.1,5.4,5.7,9.7,12.8,9.7
	c2.2,0,5.4-0.1,5.4-3c0-2.6-5.8-3.6-7.7-4.2c-14.8-4.1-28.6-10.9-28.6-28.2c0-13.8,9.4-22,22.9-22c7.1,0,10.8,1.7,15.1,7.4
	c0.2-2.3,0.2-4.6,0.1-6.9h3.9c4.4,0,8.9,0,13.3,0.1c-0.5,7.5-0.1,15.1-0.4,22.6l-18.3-0.3c-2.2-3.9-3.6-8.2-9-8.2
	c-1.8,0-3.9,0.4-3.9,2.6c0,8.1,37.3,2.8,37.3,31.3C400.2,119,390,126.2,374.2,126.2"/>
<path d="M430.9,80.2v2.2h7.1c-0.1-2.4,0.7-13.3-3.2-13.3C430.5,69.1,430.9,77.4,430.9,80.2 M448.5,94c-5.8,0-12-0.5-17.8,0v1.2
	c0,4.6-0.8,14.7,5.9,14.7c5.7,0,5.7-6.6,5.9-10.8H465l-0.1,1.6c-1.5,17.8-12.9,25.9-30.1,25.9c-22.6,0-34-14.6-34-36.4
	c0-20.9,12.4-37.3,34.4-37.3c21.4,0,30.7,15.6,30.7,35.3c0,1.9,0,3.9-0.3,5.8L448.5,94z"/>
<path d="M505.1,125.5v-19.9h2.7V76.5c0-2-0.7-3.4-2.8-3.4c-3.9,0-3.9,9.7-3.9,12.3v20.2h2.4v20H467v-20h4.7V74.4H467v-20h33.4v10
	c0.5-0.8,1-1.6,1.5-2.4c3.6-6.6,10-8.8,17.1-8.8c20.8,0,18.3,16.2,18.3,31.7v20.7h4.6v20L505.1,125.5z"/>
<path d="M556.2,34.7c0-0.6,0-1.2,0.1-1.8c7.2-0.1,14.3-0.3,21.4-0.7v1.3c-0.1,7,0.1,13.9,0.1,20.9h15.5v20.2h-15.5v29.7
	c0,1.5-0.1,6.9,2.2,6.9s2.3-1.9,2.3-3.5c0-2.4-0.3-4.7-0.4-7l14.2-0.3c0.5,2.1,0.7,4.2,0.8,6.3c0,14.7-9.6,19.4-23,19.4
	c-18.3,0-25.6-10-25.6-27.5v-24h-7.3v-20C553.2,53.5,555.8,45.8,556.2,34.7"/>
</svg>
